<svg width="30" height="30" fill="none" xmlns="http://www.w3.org/2000/svg"><path d="M15.074 17.84a2.844 2.844 0 01-2.84-2.84 2.843 2.843 0 012.84-2.839 2.842 2.842 0 012.84 2.84 2.843 2.843 0 01-2.84 2.84zm0-7.273A4.438 4.438 0 0010.64 15a4.438 4.438 0 004.433 4.433A4.438 4.438 0 0019.506 15a4.438 4.438 0 00-4.432-4.433z" fill="#fff"/><path d="M11.407 7.694a3.717 3.717 0 00-3.714 3.713v7.186a3.717 3.717 0 003.714 3.713h7.186a3.717 3.717 0 003.714-3.713v-7.186a3.717 3.717 0 00-3.714-3.713h-7.186zM18.593 24h-7.186A5.413 5.413 0 016 18.593v-7.186A5.413 5.413 0 0111.407 6h7.186A5.413 5.413 0 0124 11.407v7.186A5.413 5.413 0 0118.593 24z" fill="#fff"/><path fill-rule="evenodd" clip-rule="evenodd" d="M11.407 7.694a3.717 3.717 0 00-3.714 3.713v7.186a3.717 3.717 0 003.714 3.713h7.186a3.717 3.717 0 003.714-3.713v-7.186a3.717 3.717 0 00-3.714-3.713h-7.186zm7.303 2.575a1.055 1.055 0 112.11 0 1.055 1.055 0 01-2.11 0zM10.64 15a4.438 4.438 0 014.434-4.433A4.438 4.438 0 0119.506 15a4.438 4.438 0 01-4.432 4.433A4.438 4.438 0 0110.64 15z" fill="#fff"/></svg>