<svg width="140" height="140" viewBox="0 0 140 140" fill="none" xmlns="http://www.w3.org/2000/svg">
<path d="M105.072 39.5652H34.9289C29.5142 39.5652 25.1089 43.9637 25.1089 49.37V91.3908C25.1089 96.7971 29.5142 101.196 34.9289 101.196H105.072C110.486 101.196 114.892 96.7971 114.892 91.3908V49.37C114.892 43.9637 110.486 39.5652 105.072 39.5652ZM34.9289 45.168H105.072C107.392 45.168 109.28 47.0531 109.28 49.37V54.9728H30.7203V49.37C30.7203 47.0531 32.6084 45.168 34.9289 45.168ZM105.072 95.5929H34.9289C32.6084 95.5929 30.7203 93.7077 30.7203 91.3908V60.5756H109.28V91.3908C109.28 93.7077 107.392 95.5929 105.072 95.5929Z" fill="#1ABC0F"/>
<path d="M44.7488 87.1887H41.9431C40.3937 87.1887 39.1374 85.9344 39.1374 84.3873V81.5859C39.1374 80.0389 40.3937 78.7846 41.9431 78.7846H44.7488C46.2983 78.7846 47.5545 80.0389 47.5545 81.5859V84.3873C47.5545 85.9344 46.2983 87.1887 44.7488 87.1887Z" fill="#1ABC0F"/>
</svg>
