<svg width="140" height="140" viewBox="0 0 140 140" fill="none" xmlns="http://www.w3.org/2000/svg">
<path d="M111.408 67.7123L72.9893 29.2933C70.331 26.635 66.6526 25.1086 62.8903 25.1086H33.271C28.7715 25.1086 25.1089 28.7691 25.1089 33.2708V62.8882C25.1089 66.7023 26.5955 70.2891 29.2935 72.9891L67.7126 111.408C69.9603 113.654 72.9493 114.891 76.1216 114.891C79.2939 114.891 82.283 113.654 84.5307 111.408L111.408 84.5307C113.656 82.2869 114.891 79.2998 114.891 76.1216C114.891 72.9434 113.656 69.956 111.408 67.7123ZM108.523 81.6453L81.6456 108.523C78.6885 111.472 73.5552 111.472 70.5981 108.523L32.1789 70.1035C30.25 68.1747 29.1899 65.612 29.1899 62.888V33.2708C29.1899 31.0211 31.0192 29.1898 33.2708 29.1898H62.8903C65.5765 29.1898 68.2069 30.2798 70.1038 32.1788L108.523 70.5979C109.998 72.0724 110.811 74.0332 110.811 76.1216C110.811 78.2098 109.998 80.1706 108.523 81.6453Z" fill="#1ABC0F"/>
<path d="M73.1766 76.0618C73.5751 76.4603 74.0971 76.6596 74.6194 76.6596C75.1414 76.6596 75.6635 76.4603 76.0622 76.0618C76.8593 75.2647 76.8593 73.9734 76.0622 73.1765L73.176 70.2904L76.0622 67.4037L80.3903 71.7337C81.1874 72.5308 82.4787 72.5308 83.2756 71.7337C84.0728 70.9366 84.0728 69.6453 83.2756 68.8483L77.5047 63.0755C77.1221 62.6929 76.6041 62.4777 76.062 62.4777C75.5198 62.4777 75.0018 62.6929 74.6192 63.0755L63.0776 74.6192C62.2805 75.4164 62.2805 76.7076 63.0776 77.5046L68.8485 83.2755C69.247 83.674 69.7692 83.8733 70.2913 83.8733C70.8133 83.8733 71.3354 83.674 71.734 83.2755C72.5312 82.4784 72.5312 81.1871 71.734 80.3901L67.4059 76.062L70.2911 73.1763L73.1766 76.0618Z" fill="#1ABC0F"/>
<path d="M89.0463 74.6191C88.2492 73.8219 86.9579 73.8219 86.161 74.6191L74.6194 86.1607C73.8222 86.9578 73.8222 88.2491 74.6194 89.046L80.3903 94.8188C80.7888 95.2173 81.311 95.4166 81.8331 95.4166C82.3551 95.4166 82.8772 95.2173 83.2758 94.8188C84.073 94.0217 84.073 92.7304 83.2758 91.9335L78.9477 87.6035L81.8331 84.7181L84.7184 87.6035C85.1169 88.0019 85.6391 88.2013 86.1612 88.2013C86.6832 88.2013 87.2053 88.0019 87.604 87.6035C88.4011 86.8063 88.4011 85.515 87.604 84.7181L84.7186 81.8327L87.604 78.9474L91.9321 83.2755C92.7292 84.0727 94.0205 84.0727 94.8174 83.2755C95.6146 82.4784 95.6146 81.1871 94.8174 80.3902L89.0463 74.6191Z" fill="#1ABC0F"/>
<path d="M52.9747 52.9764C53.7719 52.1793 53.7719 50.888 52.9747 50.0911L50.0894 47.2042L52.9747 44.3183L57.3029 48.6464C58.1 49.4435 59.3913 49.4435 60.1882 48.6464C60.9854 47.8493 60.9854 46.558 60.1882 45.761L54.4173 39.9901C53.6521 39.225 52.2972 39.225 51.532 39.9901L45.7641 45.7589L45.7611 45.7608L45.7601 45.7628L39.9904 51.5337C39.1932 52.3308 39.1932 53.6221 39.9904 54.419C40.3888 54.8175 40.9111 55.0168 41.4331 55.0168C41.9552 55.0168 42.4772 54.8175 42.8759 54.419L47.2042 50.0899L50.0894 52.9764C50.4879 53.3749 51.0101 53.5742 51.5322 53.5742C52.054 53.5742 52.5761 53.3749 52.9747 52.9764Z" fill="#1ABC0F"/>
<path d="M64.8551 64.8589C66.3656 64.7791 67.7724 64.1515 68.8485 63.0754C71.2357 60.6882 71.2357 56.8064 68.8485 54.4192L65.9631 51.5338C65.166 50.7367 63.8747 50.7367 63.0778 51.5338L57.3587 57.2508C57.3388 57.2688 57.3189 57.2867 57.3029 57.3045C57.283 57.3225 57.2669 57.3405 57.251 57.3604L51.532 63.0754C50.7348 63.8726 50.7348 65.1638 51.532 65.9608C52.3291 66.7579 53.6204 66.7579 54.4173 65.9608L58.7454 61.6327L60.1922 63.0733C60.9854 63.8705 60.9854 65.1657 60.1922 65.9608L57.3029 68.8482C56.5057 69.6433 56.5057 70.9366 57.3029 71.7336C57.7013 72.1321 58.2236 72.3314 58.7456 72.3314C59.2677 72.3314 59.7897 72.1321 60.1884 71.7336L63.0778 68.8461C64.1816 67.7402 64.7754 66.3114 64.8551 64.8589ZM64.5204 55.8618L65.9631 57.3045C66.7603 58.0996 66.7603 59.3948 65.9631 60.1899C65.5765 60.5744 65.0663 60.7877 64.5204 60.7877H64.5163C63.9744 60.7877 63.4642 60.5765 63.0776 60.188L61.6348 58.7473L64.5204 55.8618Z" fill="#1ABC0F"/>
</svg>
