<svg width="140" height="140" viewBox="0 0 140 140" fill="none" xmlns="http://www.w3.org/2000/svg">
<path d="M111.612 53.1123C109.424 47.6976 106.135 42.6211 101.757 38.2435C97.3793 33.8653 92.3028 30.5765 86.8881 28.3886C81.4727 26.2 75.7196 25.1089 69.969 25.1089C64.2264 25.1089 58.4836 26.2047 53.0795 28.3958C47.6761 30.586 42.6116 33.8743 38.2431 38.2435C33.8741 42.6118 30.5856 47.6762 28.3954 53.0799C26.2047 58.4836 25.1089 64.2262 25.1089 69.9688C25.1089 75.7194 26.2 81.4726 28.3882 86.8881C30.5762 92.3028 33.8648 97.3795 38.2431 101.757C42.6207 106.135 47.6973 109.424 53.1119 111.612C58.5273 113.8 64.2804 114.891 70.0311 114.891C75.7736 114.891 81.5164 113.796 86.9205 111.605C92.324 109.414 97.3885 106.126 101.757 101.757C106.126 97.3884 109.415 92.324 111.605 86.9205C113.796 81.5166 114.892 75.774 114.892 70.0311C114.892 64.2808 113.8 58.5275 111.612 53.1123ZM106.056 84.6707C104.158 89.3499 101.317 93.7277 97.5228 97.5229C93.7275 101.318 89.3498 104.158 84.6707 106.056C79.9924 107.953 75.0124 108.904 70.0312 108.904C65.0376 108.904 60.0452 107.956 55.356 106.06C50.6662 104.164 46.2795 101.325 42.4776 97.5231C38.6761 93.721 35.8362 89.3345 33.9404 84.6446C32.0451 79.9554 31.0971 74.9628 31.0973 69.9692C31.0973 64.988 32.0485 60.0082 33.9453 55.3299C35.8428 50.6508 38.6831 46.273 42.478 42.4778C46.2732 38.6831 50.651 35.8428 55.3302 33.9451C60.0085 32.0481 64.9885 31.0971 69.9697 31.0971C74.9633 31.0971 79.9557 32.0449 84.6449 33.9404C89.3347 35.8365 93.7214 38.6762 97.5233 42.4776C101.325 46.2797 104.165 50.6662 106.061 55.356C107.956 60.0452 108.904 65.0376 108.904 70.0312C108.904 75.0122 107.953 79.992 106.056 84.6707Z" fill="#1ABC0F"/>
<path d="M88.6441 51.3564C87.5001 50.2124 85.6452 50.2124 84.501 51.3564L51.3563 84.5011C50.2122 85.6453 50.2122 87.5 51.3563 88.6442C52.5005 89.7884 54.3552 89.7884 55.4994 88.6442L88.6443 55.4994C89.7881 54.3553 89.7881 52.5002 88.6441 51.3564Z" fill="#1ABC0F"/>
<path d="M68.3799 49.1454C67.9506 48.0856 67.3022 47.0887 66.4494 46.2364C65.5974 45.3837 64.6005 44.7354 63.5404 44.3059C62.4799 43.8761 61.3567 43.6622 60.2346 43.6622C59.1125 43.6622 57.9893 43.8761 56.9288 44.3059C55.8689 44.7352 54.872 45.3837 54.0198 46.2364C53.167 47.0883 52.5187 48.0854 52.0893 49.1454C51.6595 50.206 51.4455 51.3292 51.4455 52.4513C51.4455 53.5734 51.6595 54.6965 52.0893 55.7571C52.5186 56.8169 53.1672 57.8138 54.0198 58.6661C54.8718 59.5188 55.8687 60.1671 56.9288 60.5966C57.9893 61.0264 59.1125 61.2403 60.2346 61.2403C61.3567 61.2403 62.4799 61.0264 63.5404 60.5966C64.6003 60.1673 65.5972 59.5188 66.4494 58.6661C67.3022 57.814 67.9505 56.8171 68.3799 55.7571C68.8097 54.6965 69.0237 53.5734 69.0237 52.4513C69.0237 51.3292 68.8099 50.206 68.3799 49.1454ZM62.95 53.5551C62.8073 53.9058 62.5977 54.2308 62.3063 54.5229C62.0143 54.8144 61.6894 55.0239 61.3386 55.1667C60.9885 55.3089 60.6121 55.3809 60.2348 55.3809C59.8572 55.3809 59.4811 55.3087 59.1309 55.1667C58.7802 55.0239 58.4553 54.8144 58.1633 54.5229C57.8718 54.231 57.6623 53.906 57.5196 53.5553C57.3773 53.2051 57.3053 52.8288 57.3053 52.4514C57.3051 52.0739 57.3773 51.6976 57.5194 51.3474C57.6621 50.9967 57.8717 50.6717 58.1631 50.3798C58.4553 50.0883 58.78 49.8786 59.1309 49.736C59.4811 49.5938 59.8574 49.5217 60.2348 49.5217C60.6123 49.5217 60.9885 49.594 61.3386 49.736C61.6894 49.8788 62.0143 50.0883 62.3063 50.3798C62.5977 50.6717 62.8073 50.9967 62.95 51.3474C63.0922 51.6976 63.1643 52.0739 63.1643 52.4513C63.1643 52.8286 63.092 53.2049 62.95 53.5551Z" fill="#1ABC0F"/>
<path d="M89.8637 82.3192C89.4345 81.2594 88.7858 80.2624 87.9332 79.4102C87.0814 78.5574 86.0843 77.9092 85.0242 77.4797C83.9637 77.0499 82.8405 76.836 81.7184 76.836C80.5963 76.836 79.4732 77.0499 78.4126 77.4797C77.3527 77.909 76.3558 78.5574 75.5036 79.4102C74.6508 80.2621 74.0026 81.2592 73.5731 82.3192C73.1433 83.3798 72.9294 84.5029 72.9294 85.625C72.9294 86.7471 73.1433 87.8703 73.5731 88.9309C74.0024 89.9907 74.6508 90.9876 75.5036 91.8399C76.3557 92.6926 77.3526 93.3409 78.4126 93.7704C79.4732 94.2001 80.5963 94.4141 81.7184 94.4141C82.8405 94.4141 83.9637 94.2001 85.0242 93.7704C86.0841 93.3411 87.081 92.6926 87.9332 91.8399C88.786 90.9878 89.4343 89.9909 89.8637 88.9309C90.2935 87.8703 90.5075 86.7471 90.5075 85.625C90.5075 84.5029 90.2937 83.3798 89.8637 82.3192ZM84.434 86.7285C84.2913 87.0793 84.0817 87.4042 83.7903 87.6962C83.4983 87.9876 83.1734 88.1972 82.8226 88.3399C82.4725 88.4821 82.0961 88.5542 81.7188 88.5542C81.3412 88.5542 80.9651 88.4819 80.6149 88.3399C80.2642 88.1972 79.9393 87.9876 79.6473 87.6962C79.3558 87.4042 79.1463 87.0793 79.0035 86.7285C78.8613 86.3784 78.7891 86.0021 78.7893 85.6247C78.7893 85.2471 78.8615 84.871 79.0035 84.5208C79.1463 84.1701 79.3558 83.8452 79.6473 83.5532C79.9393 83.2617 80.2642 83.0522 80.6151 82.9095C80.9653 82.7672 81.3416 82.6952 81.7189 82.6952C82.0965 82.6952 82.4726 82.7674 82.8228 82.9095C83.1732 83.0522 83.4979 83.2617 83.7903 83.5532C84.0817 83.8452 84.2913 84.1701 84.434 84.5208C84.5762 84.871 84.6483 85.2473 84.6483 85.6247C84.6483 86.0022 84.576 86.3785 84.434 86.7285Z" fill="#1ABC0F"/>
</svg>
