<svg width="140" height="140" fill="none" xmlns="http://www.w3.org/2000/svg"><path d="M105.072 39.565H34.929c-5.415 0-9.82 4.399-9.82 9.805v42.02c0 5.407 4.405 9.806 9.82 9.806h70.143c5.414 0 9.82-4.399 9.82-9.805V49.37c0-5.406-4.406-9.805-9.82-9.805zm-70.143 5.603h70.143a4.21 4.21 0 014.208 4.202v5.603H30.72V49.37a4.21 4.21 0 014.209-4.202zm70.143 50.425H34.929a4.21 4.21 0 01-4.209-4.202V60.576h78.56V91.39a4.21 4.21 0 01-4.208 4.202z" fill="#1ABC0F"/><path d="M44.749 87.189h-2.806a2.804 2.804 0 01-2.806-2.802v-2.801a2.804 2.804 0 012.806-2.801h2.806a2.804 2.804 0 012.805 2.8v2.802a2.804 2.804 0 01-2.805 2.802z" fill="#1ABC0F"/></svg>