<svg width="139" height="139" fill="none" xmlns="http://www.w3.org/2000/svg"><path d="M88.503 74.328l-9.388-4.153a1.83 1.83 0 01-1.092-1.672v-2.567c3.154-2.5 5.181-6.353 5.181-10.67v-3.612a3.33 3.33 0 001.727-2.913v-.35c0-7.522-6.147-13.641-13.703-13.641h-3.454c-7.556 0-13.703 6.12-13.703 13.64v3.182c0 1.087.47 2.072 1.289 2.702.139.107.285.201.438.282v.71c0 4.317 2.026 8.169 5.18 10.67v2.567a1.83 1.83 0 01-1.092 1.672l-9.388 4.153a8.49 8.49 0 00-5.061 7.753v21.316c0 .888.723 1.608 1.615 1.608s1.616-.72 1.616-1.608V82.081c0-.186.013-.37.033-.553l4.326 4.306a3.518 3.518 0 011.044 2.51v15.053c0 .888.723 1.608 1.615 1.608.893 0 1.616-.72 1.616-1.608V88.343a6.705 6.705 0 00-1.99-4.783l-5.158-5.134a5.28 5.28 0 011.656-1.159l9.23-4.083 6.845 6.814v23.399c0 .888.724 1.608 1.616 1.608.892 0 1.616-.72 1.616-1.608v-23.4l6.845-6.813 9.23 4.083a5.287 5.287 0 011.656 1.159L83.69 83.56a6.705 6.705 0 00-1.99 4.783v15.054c0 .888.723 1.608 1.616 1.608.892 0 1.615-.72 1.615-1.608V88.343c0-.947.37-1.839 1.044-2.509l4.326-4.306c.02.183.033.366.033.553v21.316c0 .888.723 1.608 1.615 1.608.893 0 1.616-.72 1.616-1.608V82.081a8.491 8.491 0 00-5.062-7.753zM69.5 77.058l-6.006-5.98a5.02 5.02 0 00.715-2.575v-.655c1.63.682 3.417 1.06 5.292 1.06 1.874 0 3.662-.378 5.29-1.06v.655c0 .926.259 1.81.716 2.576L69.5 77.057zm0-11.367c-5.774 0-10.471-4.676-10.471-10.424v-.724c1.008-.397 1.992-1.03 2.934-1.896.655-.602.696-1.62.091-2.272a1.621 1.621 0 00-2.283-.091c-.808.742-1.615 1.222-2.399 1.426a.262.262 0 01-.043.008.326.326 0 01-.027-.146v-3.181c0-5.748 4.698-10.424 10.472-10.424h3.453c5.775 0 10.472 4.676 10.472 10.424v.35c0 .053-.031.098-.072.106-9.675 1.902-14.527-1.683-16.165-3.312a1.62 1.62 0 00-2.284 0 1.603 1.603 0 000 2.274c5.017 4.994 12.338 5.084 16.795 4.551v2.907c0 5.747-4.698 10.424-10.472 10.424zm-26.013-.111v-3.438c0-4.195-2.19-7.889-5.49-10.014a6.76 6.76 0 00.31-2.018c0-3.73-3.05-6.765-6.797-6.765s-6.796 3.035-6.796 6.765c0 .694.106 1.369.31 2.018-3.3 2.126-5.49 5.819-5.49 10.014v3.438c0 4.063 2.053 7.656 5.18 9.809v3.537c0 .697-.389 1.324-1.016 1.636l-5.588 2.782a6.726 6.726 0 00-3.756 6.05v14.003c0 .888.723 1.608 1.615 1.608s1.616-.72 1.616-1.608V90.09l2.632 2.62a3.518 3.518 0 011.044 2.51v8.177c0 .888.723 1.608 1.616 1.608.892 0 1.615-.72 1.615-1.608v-8.178a6.706 6.706 0 00-1.99-4.783l-3.663-3.647-.055-.049c.23-.202.488-.378.771-.52l5.589-2.78c.286-.143.552-.311.8-.498l3.95 3.932v16.523c0 .888.724 1.608 1.616 1.608.893 0 1.616-.72 1.616-1.608V86.874l3.95-3.933c.249.188.515.356.801.498l1.541.767a1.617 1.617 0 002.168-.719c.4-.794.076-1.76-.722-2.157l-1.541-.767a1.819 1.819 0 01-1.016-1.637V75.39c3.126-2.154 5.18-5.746 5.18-9.81zM31.51 46.562c1.966 0 3.565 1.592 3.565 3.549 0 .215-.02.426-.056.633a11.987 11.987 0 00-3.509-.523 11.98 11.98 0 00-3.503.522 3.553 3.553 0 01-.061-.632 3.56 3.56 0 013.564-3.549zm0 6.876c4.823 0 8.746 3.905 8.746 8.706v.582c-6.727 2.05-10.735-3.043-10.907-3.266a1.618 1.618 0 00-2.434-.173c-1.543 1.536-3.053 2.276-4.144 2.633.12-4.697 3.992-8.482 8.74-8.482zm0 30.496l-3.733-3.716a5.07 5.07 0 00.169-1.291v-1.963c1.126.35 2.324.54 3.564.54 1.241 0 2.439-.19 3.565-.54v1.963c0 .444.06.876.169 1.29l-3.734 3.717zm0-9.648c-4.822 0-8.745-3.905-8.745-8.705v-.333c1.288-.295 3.199-.98 5.192-2.575a14.571 14.571 0 002.996 2.171 12.896 12.896 0 006.174 1.587c.973 0 2.014-.113 3.115-.372-.25 4.58-4.07 8.227-8.732 8.227zm89.381 5.62l-9.042-4.5a1.818 1.818 0 01-1.016-1.637v-2.28a10.16 10.16 0 003.453-7.628v-1.83h.112c.892 0 1.615-.72 1.615-1.607v-3.438c0-5.626-4.598-10.203-10.25-10.203h-3.453c-5.652 0-10.25 4.577-10.25 10.203v3.438a1.612 1.612 0 001.727 1.605v1.832a10.16 10.16 0 003.454 7.63v2.278a1.82 1.82 0 01-1.016 1.637 1.605 1.605 0 00-.723 2.157 1.617 1.617 0 002.168.72c.286-.143.552-.311.8-.498l3.951 3.932v21.68c0 .888.723 1.608 1.616 1.608.892 0 1.615-.72 1.615-1.608v-21.68l3.95-3.933c.249.188.515.356.802.498l8.749 4.355-2.654 2.642a6.707 6.707 0 00-1.99 4.783v13.335c0 .888.723 1.608 1.615 1.608s1.616-.72 1.616-1.608V90.062c0-.947.371-1.839 1.044-2.509l2.514-2.502c.076.29.118.594.118.906v17.44c0 .888.723 1.608 1.615 1.608.893 0 1.616-.72 1.616-1.608v-17.44a6.725 6.725 0 00-3.756-6.051zm-25.6-21.422v-1.498c0-3.853 3.149-6.987 7.019-6.987h3.453c3.87 0 7.019 3.134 7.019 6.987v1.786c-7.023-.377-11.262-3.098-11.303-3.124a1.62 1.62 0 00-2.038.2c-1.546 1.54-3.06 2.28-4.15 2.636zm8.746 20.292l-3.734-3.716a5.07 5.07 0 00.169-1.29v-.343c1.111.411 2.312.637 3.565.637 1.253 0 2.454-.226 3.564-.637v.342c0 .444.06.876.169 1.29l-3.733 3.717zm0-7.928c-3.87 0-7.019-3.134-7.019-6.987V61.27a13.689 13.689 0 003.792-2.304c1.696.879 5.246 2.398 10.245 2.9v1.996c0 3.853-3.148 6.987-7.018 6.987z" fill="#1ABC0F"/></svg>