<svg width="139" height="139" fill="none" xmlns="http://www.w3.org/2000/svg"><path d="M26.652 98.911a5.835 5.835 0 014.158-1.715h4.052V86.619a5.582 5.582 0 015.574-5.573h5.333a5.582 5.582 0 015.573 5.573v10.57h4.352V83.03a1.672 1.672 0 013.341 0v14.157h9.791v-20.6a2.238 2.238 0 00-2.232-2.232H61.26a2.238 2.238 0 00-2.232 2.233v1.266c0 .921-.75 1.67-1.67 1.67a1.672 1.672 0 01-1.671-1.67v-1.266a5.582 5.582 0 015.573-5.574h5.334a5.582 5.582 0 015.573 5.574v20.6h4.352v-40.93a5.582 5.582 0 015.573-5.574h5.334a5.582 5.582 0 015.573 5.573v40.93h4.142V30.85a5.882 5.882 0 015.873-5.872c1.573 0 3.049.614 4.158 1.723a5.844 5.844 0 011.723 4.157v5.281a1.672 1.672 0 01-3.341 0V30.85c0-.681-.262-1.318-.742-1.797a2.52 2.52 0 00-1.798-.742 2.535 2.535 0 00-2.532 2.54V98.86c0 .921-.749 1.67-1.67 1.67h-68.01a2.535 2.535 0 00-2.54 2.532 2.542 2.542 0 002.54 2.54h68.01c.921 0 1.67.749 1.67 1.67v.974c0 .674.263 1.318.742 1.798a2.516 2.516 0 001.79.741 2.541 2.541 0 002.54-2.539v-.974c0-.921.749-1.67 1.67-1.67h.974a2.52 2.52 0 001.798-.742 2.52 2.52 0 00.741-1.798c0-1.4-1.138-2.532-2.539-2.532h-.974c-.921 0-1.67-.749-1.67-1.67V41.27a1.672 1.672 0 013.341 0v55.965a5.872 5.872 0 013.453 9.985 5.89 5.89 0 01-3.498 1.685 5.872 5.872 0 01-5.836 5.214 5.853 5.853 0 01-4.157-1.723 5.886 5.886 0 01-1.678-3.461H30.802a5.883 5.883 0 01-5.872-5.873c0-1.565.614-3.041 1.722-4.15zM47.994 86.62a2.238 2.238 0 00-2.232-2.232h-5.334a2.238 2.238 0 00-2.232 2.232v10.57h9.798V86.62zm41.664-30.36a2.238 2.238 0 00-2.232-2.233h-5.334a2.238 2.238 0 00-2.232 2.232v40.93h9.798v-40.93z" fill="#1ABC0F"/><path d="M84.759 40.37a6.22 6.22 0 01-2.622-.576l-13.034 15.49a6.213 6.213 0 011.109 3.559 6.288 6.288 0 01-6.285 6.285 6.314 6.314 0 01-4.862-2.307l-9.753 4.322a6.288 6.288 0 01-6.217 7.214 6.288 6.288 0 01-6.285-6.285 6.288 6.288 0 016.285-6.285c1.873 0 3.67.854 4.861 2.307l9.753-4.322a6.288 6.288 0 016.217-7.214c.915 0 1.799.195 2.623.577L79.583 37.65a6.213 6.213 0 01-1.109-3.558 6.288 6.288 0 016.285-6.285 6.288 6.288 0 016.285 6.285c0 3.46-2.824 6.277-6.285 6.277zM66.871 58.843a2.944 2.944 0 10-5.889 0 2.944 2.944 0 005.889 0zm20.832-24.758a2.944 2.944 0 10-5.889.001 2.944 2.944 0 005.889 0zM46.039 68.073a2.944 2.944 0 10-2.944 2.944 2.94 2.94 0 002.944-2.944z" fill="#1ABC0F"/></svg>