<svg width="139" height="139" viewBox="0 0 139 139" fill="none" xmlns="http://www.w3.org/2000/svg">
<path d="M26.6524 98.9114C27.761 97.8028 29.2367 97.196 30.8098 97.196H34.8624V86.6189C34.8624 83.5477 37.3643 81.0457 40.4356 81.0457H45.7691C48.8403 81.0457 51.3423 83.5477 51.3423 86.6189V97.1885H55.6945V83.0308C55.6945 82.1094 56.4436 81.3603 57.3649 81.3603C58.2863 81.3603 59.0354 82.1094 59.0354 83.0308V97.1885H68.826V76.5886C68.826 75.3601 67.8222 74.3564 66.5937 74.3564H61.2602C60.0317 74.3564 59.0279 75.3601 59.0279 76.5886V77.8546C59.0279 78.776 58.2788 79.5251 57.3574 79.5251C56.4361 79.5251 55.687 78.776 55.687 77.8546V76.5886C55.687 73.5174 58.1889 71.0154 61.2602 71.0154H66.5937C69.6649 71.0154 72.1669 73.5174 72.1669 76.5886V97.1885H76.5191V56.2584C76.5191 53.1872 79.021 50.6852 82.0923 50.6852H87.4258C90.497 50.6852 92.999 53.1872 92.999 56.2584V97.1885H97.1414V30.8494C97.1414 27.6133 99.7782 24.9766 103.014 24.9766C104.587 24.9766 106.063 25.5908 107.172 26.6995C108.28 27.8081 108.895 29.2838 108.895 30.8569V36.138C108.895 37.0593 108.146 37.8084 107.224 37.8084C106.303 37.8084 105.554 37.0593 105.554 36.138V30.8494C105.554 30.1677 105.292 29.531 104.812 29.0516C104.333 28.5722 103.696 28.31 103.014 28.31C101.613 28.31 100.482 29.4486 100.482 30.8494V98.859C100.482 99.7804 99.7333 100.529 98.8119 100.529H30.8023C30.1281 100.529 29.4839 100.792 29.0045 101.271C28.5251 101.75 28.2629 102.387 28.2629 103.061C28.2629 104.462 29.4015 105.601 30.8023 105.601H98.8119C99.7333 105.601 100.482 106.35 100.482 107.271V108.245C100.482 108.919 100.745 109.563 101.224 110.043C101.703 110.522 102.34 110.784 103.014 110.784C104.415 110.784 105.554 109.646 105.554 108.245V107.271C105.554 106.35 106.303 105.601 107.224 105.601H108.198C108.88 105.601 109.516 105.339 109.996 104.859C110.475 104.38 110.737 103.743 110.737 103.061C110.737 101.661 109.599 100.529 108.198 100.529H107.224C106.303 100.529 105.554 99.7804 105.554 98.859V41.2692C105.554 40.3478 106.303 39.5987 107.224 39.5987C108.146 39.5987 108.895 40.3478 108.895 41.2692V97.2335C111.824 97.578 114.071 100.073 114.071 103.061C114.071 104.634 113.457 106.11 112.348 107.219C111.404 108.163 110.168 108.754 108.85 108.904C108.52 111.856 106.018 114.118 103.014 114.118C101.441 114.118 99.973 113.504 98.8568 112.395C97.9205 111.459 97.3362 110.238 97.1789 108.934H30.8023C27.5663 108.934 24.9295 106.297 24.9295 103.061C24.9295 101.496 25.5437 100.02 26.6524 98.9114ZM47.9939 86.6189C47.9939 85.3904 46.9901 84.3866 45.7616 84.3866H40.4281C39.1996 84.3866 38.1958 85.3904 38.1958 86.6189V97.1885H47.9939V86.6189ZM89.6581 56.2584C89.6581 55.0299 88.6543 54.0261 87.4258 54.0261H82.0923C80.8638 54.0261 79.86 55.0299 79.86 56.2584V97.1885H89.6581V56.2584Z" fill="#1ABC0F"/>
<path d="M84.759 40.3704C83.8601 40.3704 82.9537 40.1756 82.1372 39.7936L69.1031 55.2847C69.8297 56.3334 70.2118 57.5619 70.2118 58.8428C70.2118 62.3111 67.3952 65.1277 63.9269 65.1277C62.0542 65.1277 60.2564 64.2737 59.0654 62.8205L49.3122 67.1427C49.3572 67.4499 49.3797 67.7645 49.3797 68.0716C49.3797 71.5399 46.5631 74.3564 43.0948 74.3564C39.6265 74.3564 36.81 71.5399 36.81 68.0716C36.81 64.6033 39.6265 61.7868 43.0948 61.7868C44.9675 61.7868 46.7653 62.6407 47.9564 64.0939L57.7095 59.7717C57.6646 59.4646 57.6421 59.15 57.6421 58.8428C57.6421 55.3746 60.4586 52.558 63.9269 52.558C64.8408 52.558 65.7247 52.7528 66.5487 53.1348L79.5828 37.6512C78.8562 36.6025 78.4742 35.374 78.4742 34.093C78.4742 30.6247 81.2908 27.8082 84.759 27.8082C88.2273 27.8082 91.0439 30.6247 91.0439 34.093C91.0439 37.5538 88.2198 40.3704 84.759 40.3704ZM66.8708 58.8428C66.8708 57.2173 65.5524 55.8989 63.9269 55.8989C62.3014 55.8989 60.983 57.2173 60.983 58.8428C60.983 60.4684 62.3014 61.7868 63.9269 61.7868C65.5524 61.7868 66.8708 60.4684 66.8708 58.8428ZM87.7029 34.0855C87.7029 32.46 86.3845 31.1416 84.759 31.1416C83.1335 31.1416 81.8151 32.46 81.8151 34.0855C81.8151 35.711 83.1335 37.0294 84.759 37.0294C86.3845 37.0294 87.7029 35.711 87.7029 34.0855ZM46.0387 68.0716C46.0387 66.4461 44.7203 65.1277 43.0948 65.1277C41.4693 65.1277 40.1509 66.4461 40.1509 68.0716C40.1509 69.6971 41.4693 71.0155 43.0948 71.0155C44.7203 71.023 46.0387 69.6971 46.0387 68.0716Z" fill="#1ABC0F"/>
</svg>
