<svg width="139" height="139" viewBox="0 0 139 139" fill="none" xmlns="http://www.w3.org/2000/svg">
<path d="M84.8561 82.1741C82.6925 82.1741 80.9324 80.6737 80.9324 78.8296C80.9324 76.9853 82.6925 75.4849 84.8561 75.4849C87.0198 75.4849 88.7799 76.9853 88.7799 78.8296C88.7799 79.7995 89.5786 80.5861 90.5635 80.5861C91.5483 80.5861 92.347 79.7995 92.347 78.8296C92.347 75.6109 89.9118 72.9045 86.6397 72.17V71.2564C86.6397 70.2865 85.841 69.5 84.8561 69.5C83.8713 69.5 83.0726 70.2865 83.0726 71.2564V72.17C79.8005 72.9045 77.3653 75.6109 77.3653 78.8296C77.3653 82.6107 80.7256 85.687 84.8561 85.687C87.0198 85.687 88.7799 87.1874 88.7799 89.0316C88.7799 90.8759 87.0198 92.3763 84.8561 92.3763C82.6925 92.3763 80.9324 90.8759 80.9324 89.0316C80.9324 88.0617 80.1337 87.2752 79.1488 87.2752C78.1639 87.2752 77.3653 88.0617 77.3653 89.0316C77.3653 92.2504 79.8005 94.9567 83.0726 95.6913V96.4501C83.0726 97.42 83.8713 98.2065 84.8561 98.2065C85.841 98.2065 86.6397 97.42 86.6397 96.4501V95.6913C89.9118 94.9567 92.347 92.2504 92.347 89.0316C92.347 85.2503 88.9866 82.1741 84.8561 82.1741Z" fill="#1ABC0F"/>
<path d="M103.664 71.9233C101.331 68.3397 98.0439 65.472 94.1584 63.6308C93.2691 63.2094 92.2019 63.5784 91.7747 64.4548C91.3473 65.3312 91.7215 66.383 92.6106 66.8043C99.3817 70.0127 103.757 76.8683 103.757 84.2694C103.757 87.4363 102.965 90.577 101.467 93.3523C101.003 94.2106 101.334 95.2768 102.205 95.7335C102.472 95.8737 102.759 95.9402 103.042 95.9402C103.681 95.9402 104.299 95.6011 104.62 95.0062C106.392 91.7238 107.329 88.0109 107.329 84.2694C107.329 79.875 106.062 75.6057 103.664 71.9233Z" fill="#1ABC0F"/>
<path d="M87.1557 61.1903L87.0579 61.1902C86.2557 61.1902 85.6052 61.8666 85.6052 62.701C85.6052 63.5354 86.2557 64.2118 87.0579 64.2118L87.142 64.2119C87.1444 64.2119 87.1465 64.2119 87.149 64.2119C87.9481 64.2119 88.5978 63.5402 88.6016 62.7082C88.6052 61.8738 87.9579 61.1943 87.1557 61.1903Z" fill="#1ABC0F"/>
<path d="M76.3526 101.658C69.5816 98.449 65.2066 91.5935 65.2066 84.1926C65.2066 81.0256 65.9986 77.8849 67.4965 75.1096C67.9598 74.2513 67.6296 73.1851 66.7587 72.7284C65.8882 72.2717 64.8062 72.5972 64.343 73.4557C62.5711 76.7383 61.6345 80.451 61.6345 84.1926C61.6345 88.587 62.9017 92.856 65.2991 96.5386C67.6323 100.122 70.9194 102.99 74.805 104.831C75.0545 104.95 75.3181 105.005 75.5776 105.005C76.2428 105.005 76.8811 104.638 77.1887 104.007C77.6157 103.131 77.2417 102.079 76.3526 101.658Z" fill="#1ABC0F"/>
<path d="M81.156 103.495L81.0719 103.495C80.2659 103.493 79.6162 104.164 79.6125 104.998C79.6088 105.833 80.2564 106.512 81.0587 106.516L81.156 106.516C81.9583 106.516 82.6089 105.84 82.6089 105.006C82.6089 104.171 81.9583 103.495 81.156 103.495Z" fill="#1ABC0F"/>
<path d="M92.3786 55.2599C92.1667 54.749 91.9071 54.2675 91.605 53.8209H96.1377C100.554 53.8209 104.146 50.1855 104.146 45.7172C104.146 41.2488 100.554 37.6134 96.1377 37.6134H82.1954C83.0818 36.3094 83.6022 34.7319 83.6022 33.0331C83.6022 28.5647 80.0094 24.9293 75.5934 24.9293H32.938C28.522 24.9293 24.9292 28.5647 24.9292 33.0331C24.9292 37.5014 28.522 41.1368 32.938 41.1368H46.8802C45.9938 42.4408 45.4735 44.0184 45.4735 45.7172C45.4735 47.416 45.9937 48.9936 46.8802 50.2976H42.3396C37.9236 50.2976 34.3308 53.933 34.3308 58.4013C34.3308 60.9675 35.5171 63.2575 37.3628 64.7434C35.5171 66.2292 34.3308 68.5192 34.3308 71.0854C34.3308 73.6517 35.5171 75.9417 37.3628 77.4275C35.5171 78.9133 34.3308 81.2033 34.3308 83.7695C34.3308 86.3358 35.5171 88.6258 37.3628 90.1116C35.5171 91.5974 34.3308 93.8874 34.3308 96.4536C34.3308 100.922 37.9236 104.557 42.3396 104.557H62.8577C68.2629 110.407 75.9524 114.071 84.4729 114.071C100.793 114.071 114.071 100.636 114.071 84.122C114.071 70.3779 104.873 58.7682 92.3786 55.2599ZM96.1377 41.1368C98.6338 41.1368 100.664 43.1916 100.664 45.7172C100.664 48.2427 98.6338 50.2976 96.1377 50.2976H53.4822C50.9861 50.2976 48.9555 48.2427 48.9555 45.7172C48.9555 43.1916 50.9861 41.1368 53.4822 41.1368H96.1377ZM32.938 37.6134C30.4418 37.6134 28.4113 35.5586 28.4113 33.0331C28.4113 30.5075 30.4418 28.4527 32.938 28.4527H75.5934C78.0895 28.4527 80.1201 30.5075 80.1201 33.0331C80.1201 35.5586 78.0895 37.6134 75.5934 37.6134H32.938ZM42.3396 53.8209H84.995C85.6963 53.8209 86.3678 53.9858 86.9702 54.2811C86.1467 54.2111 85.3142 54.1734 84.4729 54.1734C76.2996 54.1734 68.8897 57.5434 63.5284 62.9817H42.3396C39.8436 62.9817 37.8129 60.9268 37.8129 58.4013C37.8129 55.8757 39.8436 53.8209 42.3396 53.8209ZM42.3396 66.505H60.5535C58.577 69.245 57.0489 72.3353 56.0785 75.6658H42.3396C39.8435 75.6658 37.8129 73.6111 37.8129 71.0854C37.8129 68.5599 39.8435 66.505 42.3396 66.505ZM42.3396 79.1891H55.279C55.0149 80.7946 54.8752 82.4419 54.8752 84.122C54.8752 85.5571 54.9778 86.9682 55.1716 88.3499H42.3396C39.8435 88.3499 37.8129 86.2952 37.8129 83.7695C37.8129 81.2438 39.8435 79.1891 42.3396 79.1891ZM42.3396 101.034C39.8435 101.034 37.8129 98.9794 37.8129 96.4536C37.8129 93.9279 39.8435 91.8733 42.3396 91.8733H55.8824C56.761 95.1875 58.1881 98.2763 60.0597 101.034H42.3396ZM84.4729 110.547C70.0728 110.547 58.3573 98.6929 58.3573 84.122C58.3573 69.5512 70.0728 57.6968 84.4729 57.6968C98.873 57.6968 110.588 69.5512 110.588 84.122C110.588 98.6929 98.873 110.547 84.4729 110.547Z" fill="#1ABC0F"/>
</svg>
