<svg width="139" height="139" viewBox="0 0 139 139" fill="none" xmlns="http://www.w3.org/2000/svg">
<path d="M88.5032 74.3284L79.1149 70.1748C78.4516 69.8815 78.0234 69.2251 78.0234 68.5029V65.9365C81.1771 63.4351 83.2042 59.5832 83.2042 55.2667V51.6541C84.2431 51.0826 84.931 49.9783 84.931 48.7414V48.3908C84.931 40.8693 78.7836 34.75 71.2276 34.75H67.774C60.2181 34.75 54.0707 40.8693 54.0707 48.3908V51.572C54.0707 52.6591 54.5407 53.644 55.36 54.2743C55.4989 54.3811 55.6452 54.475 55.7975 54.5562V55.2665C55.7975 59.583 57.8244 63.4349 60.9778 65.9361V68.5027C60.9778 69.2249 60.5494 69.8812 59.8863 70.1746L50.498 74.3282C47.4234 75.6884 45.4366 78.7316 45.4366 82.0809V103.397C45.4366 104.285 46.1599 105.005 47.0522 105.005C47.9445 105.005 48.6678 104.285 48.6678 103.397V82.0811C48.6678 81.8947 48.6812 81.7105 48.7006 81.5278L53.0266 85.8341C53.6998 86.5044 54.0707 87.3954 54.0707 88.3434V103.397C54.0707 104.285 54.7941 105.005 55.6863 105.005C56.5786 105.005 57.302 104.285 57.302 103.397V88.3434C57.302 86.5364 56.5952 84.8376 55.3115 83.5598L50.1542 78.4258C50.6189 77.9459 51.1764 77.5481 51.8105 77.2674L61.0405 73.184L67.8854 79.9976V103.397C67.8854 104.285 68.6088 105.005 69.5011 105.005C70.3933 105.005 71.1167 104.285 71.1167 103.397V79.9978L77.9616 73.1842L87.1913 77.2674C87.8255 77.5481 88.383 77.9459 88.8477 78.426L83.6904 83.5598C82.4067 84.8376 81.6999 86.5364 81.6999 88.3434V103.397C81.6999 104.285 82.4233 105.005 83.3156 105.005C84.2078 105.005 84.9312 104.285 84.9312 103.397V88.3434C84.9312 87.3956 85.3019 86.5044 85.9753 85.8341L90.3011 81.528C90.3205 81.7107 90.3339 81.8945 90.3339 82.0809V103.397C90.3339 104.285 91.0572 105.005 91.9495 105.005C92.8418 105.005 93.5651 104.285 93.5651 103.397V82.0811C93.5645 78.7318 91.5779 75.6886 88.5032 74.3284ZM69.5004 77.0573L63.4944 71.0784C63.951 70.3135 64.2089 69.4286 64.2089 68.5029V67.8484C65.8381 68.5299 67.6258 68.9075 69.5006 68.9075C71.3754 68.9075 73.1629 68.5301 74.7919 67.8486V68.5029C74.7919 69.4288 75.0498 70.3135 75.5067 71.0787L69.5004 77.0573ZM69.5006 65.6908C63.7264 65.691 59.0285 61.0146 59.0285 55.2667V54.5434C60.0367 54.1456 61.0207 53.5126 61.9627 52.6474C62.6183 52.045 62.6594 51.0275 62.0541 50.3748C61.449 49.7223 60.427 49.6813 59.7711 50.2836C58.9631 51.0262 58.1557 51.5059 57.372 51.7096C57.353 51.7146 57.339 51.7167 57.3291 51.7176C57.3175 51.6951 57.3018 51.6479 57.3018 51.5722V48.391C57.3018 42.6431 61.9996 37.9667 67.7738 37.9667H71.2274C77.0019 37.9667 81.6995 42.6431 81.6995 48.391V48.7416C81.6995 48.7937 81.668 48.839 81.6267 48.8471C71.9521 50.7492 67.0996 47.1645 65.4624 45.5348C64.8314 44.9067 63.8084 44.9067 63.1777 45.5348C62.5467 46.1629 62.5467 47.1812 63.1777 47.8091C68.1948 52.8032 75.5157 52.8933 79.9727 52.3602V55.2665C79.9727 61.0144 75.2749 65.6908 69.5006 65.6908Z" fill="#1ABC0F"/>
<path d="M43.487 65.5808V62.1423C43.487 57.9467 41.2966 54.2533 37.9962 52.1278C38.2 51.477 38.3064 50.7953 38.3064 50.1098C38.3064 46.3795 35.2578 43.3448 31.5104 43.3448C27.763 43.3448 24.7144 46.3797 24.7144 50.1098C24.7144 50.8039 24.82 51.4789 25.0242 52.1282C21.724 54.2535 19.5339 57.9469 19.5339 62.1423V65.5801C19.5339 69.643 21.5874 73.2357 24.7142 75.389V78.9257C24.7142 79.6232 24.325 80.2503 23.6983 80.5623L18.1102 83.3435C15.7929 84.4971 14.3535 86.8156 14.3535 89.3946V103.397C14.3535 104.285 15.0769 105.005 15.9691 105.005C16.8614 105.005 17.5848 104.285 17.5848 103.397V90.0902L20.2167 92.7102C20.8899 93.3805 21.2609 94.2715 21.2609 95.2195V103.397C21.2609 104.285 21.9842 105.005 22.8765 105.005C23.7688 105.005 24.4921 104.285 24.4921 103.397V95.2195C24.4921 93.4125 23.7851 91.7137 22.5017 90.4359L18.8385 86.7894C18.8208 86.7719 18.8019 86.7566 18.7838 86.7401C19.0136 86.5381 19.2715 86.3623 19.5554 86.2208L25.1436 83.4395C25.4298 83.2969 25.6963 83.1286 25.9447 82.9416L29.8948 86.8739V103.397C29.8948 104.285 30.6182 105.005 31.5104 105.005C32.4027 105.005 33.1261 104.285 33.1261 103.397V86.8737L37.0764 82.9414C37.325 83.1286 37.5912 83.2969 37.8775 83.4393L39.4184 84.2064C39.6504 84.3219 39.8968 84.3766 40.1398 84.3766C40.7325 84.3766 41.3031 84.0507 41.5861 83.4874C41.9853 82.6929 41.6618 81.7269 40.8636 81.3297L39.3228 80.5627C38.6959 80.2507 38.3066 79.6237 38.3066 78.9263V75.3897C41.4334 73.2363 43.487 69.6435 43.487 65.5808ZM31.5104 46.5613C33.4761 46.5613 35.0752 48.1533 35.0752 50.1098C35.0752 50.3253 35.0558 50.5365 35.0187 50.7434C33.9085 50.4042 32.7308 50.2204 31.5104 50.2204C30.2918 50.2204 29.1156 50.4035 28.0071 50.7419C27.9698 50.535 27.9457 50.3248 27.9457 50.1098C27.9457 48.153 29.5447 46.5613 31.5104 46.5613ZM31.5104 53.4371C36.3326 53.4371 40.2557 57.3424 40.2557 62.1425V62.7254C33.5293 64.7754 29.5206 59.6819 29.3494 59.4587C29.0682 59.0858 28.6385 58.8525 28.1715 58.8195C27.7044 58.7869 27.2456 58.9569 26.9145 59.2865C25.3723 60.8216 23.8618 61.5621 22.771 61.9195C22.8905 57.2221 26.7635 53.4371 31.5104 53.4371ZM31.5104 83.933L27.777 80.2166C27.886 79.8019 27.9457 79.3696 27.9457 78.9259V76.9628C29.0721 77.3132 30.2696 77.5021 31.5104 77.5021C32.7512 77.5021 33.9487 77.3132 35.0752 76.9628V78.9259C35.0752 79.3696 35.1348 79.8021 35.2438 80.2166L31.5104 83.933ZM31.5104 74.2855C26.6883 74.2855 22.7651 70.3803 22.7651 65.5801V65.2469C24.0535 64.9523 25.9639 64.2676 27.9567 62.6722C28.6618 63.3344 29.6695 64.1467 30.9527 64.8433C32.4705 65.6674 34.5668 66.4297 37.1272 66.4297C38.1003 66.4297 39.1414 66.3172 40.2419 66.0585C39.9914 70.6372 36.1712 74.2855 31.5104 74.2855Z" fill="#1ABC0F"/>
<path d="M120.891 79.9058L111.849 75.4055C111.222 75.0935 110.833 74.4665 110.833 73.7691V71.4899C112.949 69.6194 114.286 66.8935 114.286 63.8614V62.0308C114.324 62.0308 114.36 62.0318 114.398 62.0318C115.29 62.0318 116.013 61.3118 116.013 60.4236V56.9858C116.013 51.3599 111.415 46.7828 105.763 46.7828H102.31C96.6582 46.7828 92.0602 51.3599 92.0602 56.9858V60.4236C92.0602 61.3118 92.7835 62.0318 93.6758 62.0318C93.6891 62.0318 93.7279 62.0314 93.7869 62.0291V63.8614C93.7869 66.8937 95.1243 69.6196 97.2407 71.4901V73.7694C97.2407 74.4669 96.8515 75.0939 96.2246 75.4057C95.4265 75.8028 95.1029 76.7689 95.5021 77.5633C95.7852 78.1269 96.3558 78.4528 96.9484 78.4528C97.1912 78.4528 97.4376 78.3981 97.6696 78.2828C97.9559 78.1402 98.2224 77.9718 98.4707 77.7849L102.421 81.7172V103.397C102.421 104.285 103.144 105.005 104.037 105.005C104.929 105.005 105.652 104.285 105.652 103.397V81.7167L109.602 77.7844C109.851 77.9716 110.117 78.14 110.404 78.2823L119.153 82.6371L116.499 85.2787C115.216 86.5565 114.509 88.2553 114.509 90.0623V103.397C114.509 104.285 115.232 105.005 116.124 105.005C117.016 105.005 117.74 104.285 117.74 103.397V90.0623C117.74 89.1145 118.111 88.2233 118.784 87.553L121.298 85.0508C121.374 85.3417 121.416 85.6452 121.416 85.9565V103.397C121.416 104.285 122.139 105.005 123.031 105.005C123.924 105.005 124.647 104.285 124.647 103.397V85.9565C124.647 83.3777 123.208 81.0593 120.891 79.9058ZM95.2912 58.4845V56.9856C95.2912 53.1332 98.4399 49.9991 102.31 49.9991H105.763C109.633 49.9991 112.782 53.1332 112.782 56.9856V58.772C105.759 58.3948 101.52 55.6743 101.479 55.6475C101.206 55.4661 100.894 55.3773 100.584 55.3773C100.167 55.3773 99.7529 55.5377 99.4406 55.8484C97.8947 57.3872 96.3801 58.1278 95.2912 58.4845ZM104.037 78.7762L100.303 75.0598C100.412 74.6451 100.472 74.2128 100.472 73.7691V73.4267C101.583 73.8382 102.784 74.0642 104.037 74.0642C105.29 74.0642 106.491 73.8382 107.601 73.4267V73.7691C107.601 74.2128 107.661 74.6451 107.77 75.0598L104.037 78.7762ZM104.037 70.8479C100.167 70.8479 97.0182 67.7139 97.0182 63.8614V61.2687C98.1498 60.8186 99.4681 60.103 100.81 58.9652C102.506 59.844 106.056 61.3628 111.055 61.8646V63.8614C111.055 67.7137 107.907 70.8479 104.037 70.8479Z" fill="#1ABC0F"/>
</svg>
