<svg width="320" height="768" fill="none" xmlns="http://www.w3.org/2000/svg"><g filter="url(#filter0_b)"><path fill="#1A3236" fill-opacity=".95" d="M0 0h320v768H0z"/></g><path d="M110.382 157h-1.413v-9.507h-5.259V157h-1.406v-10.664h8.078V157zm9.046-3.875c0 1.207-.276 2.178-.828 2.916-.552.737-1.299 1.105-2.241 1.105-.962 0-1.719-.305-2.271-.915v3.816h-1.355v-10.972h1.238l.066.879c.552-.683 1.318-1.025 2.3-1.025.952 0 1.704.359 2.256 1.076.556.718.835 1.717.835 2.996v.124zm-1.355-.153c0-.894-.191-1.599-.572-2.117-.38-.518-.903-.776-1.567-.776-.82 0-1.435.363-1.846 1.091v3.787c.406.722 1.026 1.084 1.861 1.084.649 0 1.164-.257 1.545-.77.386-.517.579-1.284.579-2.299zm6.372 4.174c-1.074 0-1.948-.351-2.622-1.054-.674-.708-1.011-1.653-1.011-2.835v-.249c0-.786.149-1.487.447-2.102.303-.62.722-1.103 1.26-1.45a3.162 3.162 0 011.757-.527c1.031 0 1.831.339 2.403 1.018.571.678.857 1.65.857 2.915v.564h-5.369c.02.781.247 1.413.681 1.897.44.478.996.718 1.67.718.479 0 .884-.098 1.216-.293a3.07 3.07 0 00.871-.777l.828.645c-.664 1.02-1.66 1.53-2.988 1.53zm-.169-7.104c-.547 0-1.005.2-1.377.601-.371.395-.6.952-.688 1.669h3.97v-.102c-.039-.689-.225-1.221-.557-1.597-.332-.381-.781-.571-1.348-.571zm9.961-.967h1.355V157h-1.355v-5.779L130.583 157h-1.355v-7.925h1.355v5.786l3.654-5.786zm8.094 6.131l2.695-6.131h1.692V157h-1.355v-5.764L142.799 157h-.937l-2.615-5.889V157h-1.355v-7.925h1.758l2.681 6.131zm9.162-.191l1.846-5.94h1.45l-3.186 9.148c-.493 1.319-1.277 1.978-2.351 1.978l-.256-.022-.506-.096v-1.098l.366.029c.459 0 .816-.093 1.07-.278.259-.186.471-.525.637-1.018l.3-.806-2.827-7.837h1.48l1.977 5.94zm5.911-5.94v6.819h2.9v-6.819h1.355v6.819h2.893v-6.819h1.363v6.819h1.113l-.132 3.457h-1.216V157h-9.638v-7.925h1.362zm14.385 8.071c-1.075 0-1.949-.351-2.622-1.054-.674-.708-1.011-1.653-1.011-2.835v-.249c0-.786.149-1.487.447-2.102a3.514 3.514 0 011.259-1.45 3.166 3.166 0 011.758-.527c1.03 0 1.831.339 2.402 1.018.572.678.857 1.65.857 2.915v.564h-5.368c.019.781.246 1.413.681 1.897.439.478.996.718 1.67.718.478 0 .884-.098 1.216-.293a3.07 3.07 0 00.871-.777l.828.645c-.664 1.02-1.66 1.53-2.988 1.53zm-.169-7.104a1.8 1.8 0 00-1.377.601c-.371.395-.6.952-.688 1.669h3.969v-.102c-.039-.689-.224-1.221-.556-1.597-.332-.381-.781-.571-1.348-.571zm8.013 5.999c.483 0 .906-.147 1.267-.44.361-.293.561-.659.6-1.099h1.282c-.024.455-.18.887-.469 1.297-.288.41-.673.737-1.157.981a3.305 3.305 0 01-1.523.366c-1.079 0-1.939-.358-2.578-1.076-.635-.723-.952-1.709-.952-2.959v-.227c0-.772.141-1.458.424-2.058a3.249 3.249 0 011.216-1.399c.532-.332 1.16-.498 1.882-.498.889 0 1.626.266 2.212.798.591.532.906 1.223.945 2.073H181.5c-.039-.513-.234-.933-.585-1.26-.347-.332-.777-.498-1.29-.498-.688 0-1.223.249-1.604.747-.375.493-.563 1.209-.563 2.146v.256c0 .913.188 1.617.563 2.11.376.493.914.74 1.612.74zm10.561-5.867h-2.658V157h-1.355v-6.826h-2.608v-1.099h6.621v1.099zm1.443 6.826v-7.925h3.091c1.055 0 1.863.186 2.424.557.567.366.85.906.85 1.618 0 .367-.11.699-.33.997-.219.293-.544.517-.974.673.479.113.862.332 1.15.66.293.327.44.717.44 1.171 0 .728-.269 1.285-.806 1.67-.532.386-1.287.579-2.263.579h-3.582zm1.355-3.479v2.388h2.241c.567 0 .989-.105 1.267-.315.284-.21.425-.506.425-.886 0-.791-.581-1.187-1.743-1.187h-2.19zm0-1.084h1.751c1.269 0 1.904-.371 1.904-1.113s-.601-1.126-1.802-1.15h-1.853v2.263zM204.975 157c-.079-.156-.142-.435-.191-.835-.63.654-1.382.981-2.256.981-.781 0-1.423-.219-1.926-.659-.498-.444-.747-1.006-.747-1.684 0-.825.312-1.465.937-1.919.63-.459 1.514-.689 2.652-.689h1.318v-.622c0-.474-.141-.85-.425-1.128-.283-.283-.7-.425-1.252-.425-.483 0-.889.122-1.216.366-.327.244-.491.54-.491.886h-1.362c0-.395.139-.776.418-1.142a2.897 2.897 0 011.142-.879 3.869 3.869 0 011.59-.322c.913 0 1.628.229 2.146.688.517.454.786 1.082.805 1.883v3.647c0 .728.093 1.306.279 1.736V157h-1.421zm-2.249-1.033c.425 0 .828-.11 1.209-.329.38-.22.656-.506.827-.857v-1.626H203.7c-1.66 0-2.49.486-2.49 1.457 0 .425.142.757.425.996.283.24.647.359 1.091.359zM110.382 215h-1.413v-9.507h-5.259V215h-1.406v-10.664h8.078V215zm9.046-3.875c0 1.207-.276 2.178-.828 2.916-.552.737-1.299 1.105-2.241 1.105-.962 0-1.719-.305-2.271-.915v3.816h-1.355v-10.972h1.238l.066.879c.552-.683 1.318-1.025 2.3-1.025.952 0 1.704.359 2.256 1.076.556.718.835 1.717.835 2.996v.124zm-1.355-.153c0-.894-.191-1.599-.572-2.117-.38-.518-.903-.776-1.567-.776-.82 0-1.435.363-1.846 1.091v3.787c.406.722 1.026 1.084 1.861 1.084.649 0 1.164-.257 1.545-.77.386-.517.579-1.284.579-2.299zm8.21-3.897h1.355V215h-1.355v-5.779L122.628 215h-1.355v-7.925h1.355v5.786l3.655-5.786zM136.288 215h-1.355v-3.384h-3.64V215h-1.362v-7.925h1.362v3.435h3.64v-3.435h1.355V215zm2.3-7.925h1.362v6.819h3.648v-6.819h1.355v6.819h.944l-.131 3.457h-1.216V215h-5.962v-7.925zm13.901 0h1.355V215h-1.355v-5.779L148.834 215h-1.355v-7.925h1.355v5.786l3.655-5.786zM162.501 215h-1.355v-6.804h-3.647V215h-1.362v-7.925h6.364V215zm12.591-3.875c0 1.207-.276 2.178-.828 2.916-.552.737-1.299 1.105-2.241 1.105-.962 0-1.719-.305-2.271-.915v3.816h-1.355v-10.972h1.238l.066.879c.552-.683 1.319-1.025 2.3-1.025.952 0 1.704.359 2.256 1.076.556.718.835 1.717.835 2.996v.124zm-1.355-.153c0-.894-.191-1.599-.571-2.117-.381-.518-.904-.776-1.568-.776-.82 0-1.435.363-1.846 1.091v3.787c.406.722 1.026 1.084 1.861 1.084.649 0 1.164-.257 1.545-.77.386-.517.579-1.284.579-2.299zm7.976 4.028c-.078-.156-.142-.435-.191-.835-.629.654-1.381.981-2.255.981-.782 0-1.424-.219-1.927-.659-.498-.444-.747-1.006-.747-1.684 0-.825.313-1.465.938-1.919.63-.459 1.513-.689 2.651-.689h1.318v-.622c0-.474-.141-.85-.424-1.128-.284-.283-.701-.425-1.253-.425-.483 0-.888.122-1.216.366-.327.244-.49.54-.49.886h-1.363c0-.395.14-.776.418-1.142a2.897 2.897 0 011.142-.879 3.872 3.872 0 011.59-.322c.913 0 1.628.229 2.146.688.517.454.786 1.082.805 1.883v3.647c0 .728.093 1.306.279 1.736V215h-1.421zm-2.249-1.033c.425 0 .828-.11 1.209-.329.381-.22.657-.506.827-.857v-1.626h-1.062c-1.66 0-2.49.486-2.49 1.457 0 .425.142.757.425.996.283.24.647.359 1.091.359zm8.994-6.438c.997 0 1.792.335 2.388 1.004.601.664.901 1.54.901 2.629v.125c0 .747-.144 1.416-.432 2.006a3.222 3.222 0 01-1.245 1.37c-.537.322-1.157.483-1.861.483-1.064 0-1.921-.354-2.57-1.062-.65-.712-.974-1.667-.974-2.863v-.659c0-1.666.307-2.989.922-3.97.621-.982 1.534-1.58 2.74-1.795.683-.122 1.145-.271 1.384-.446a.853.853 0 00.359-.726h1.113c0 .611-.139 1.087-.417 1.429-.274.342-.713.583-1.319.725l-1.01.227c-.806.19-1.412.513-1.817.967-.4.449-.662 1.049-.784 1.801.718-.83 1.592-1.245 2.622-1.245zm-.263 1.114c-.664 0-1.192.224-1.582.673-.391.445-.586 1.062-.586 1.853v.118c0 .849.195 1.523.586 2.021.395.493.928.74 1.596.74.674 0 1.207-.249 1.597-.747.391-.498.586-1.226.586-2.183 0-.747-.198-1.345-.593-1.794-.391-.454-.925-.681-1.604-.681zm4.717 2.321c0-.776.151-1.474.454-2.094.307-.62.732-1.099 1.274-1.436.547-.337 1.17-.505 1.868-.505 1.079 0 1.95.373 2.615 1.12.669.747 1.003 1.741 1.003 2.981v.095c0 .772-.149 1.465-.447 2.081a3.338 3.338 0 01-1.267 1.428c-.547.342-1.177.512-1.89.512-1.074 0-1.945-.373-2.614-1.12-.664-.747-.996-1.736-.996-2.966v-.096zm1.362.161c0 .879.203 1.585.608 2.117.41.532.957.799 1.64.799.689 0 1.236-.269 1.641-.806.405-.542.608-1.299.608-2.271 0-.869-.208-1.572-.623-2.109-.41-.542-.957-.813-1.64-.813-.669 0-1.209.266-1.619.798-.41.533-.615 1.294-.615 2.285zm13.279-2.951h-2.659V215h-1.355v-6.826h-2.607v-1.099h6.621v1.099zm2.798 1.633h2.058c.898.01 1.609.244 2.131.703.522.459.784 1.082.784 1.868 0 .791-.269 1.426-.806 1.904-.537.479-1.26.718-2.168.718h-3.354v-7.925h1.355v2.732zm7.8 5.193h-1.362v-7.925h1.362V215zm-7.8-4.087v2.981h2.014c.508 0 .901-.129 1.179-.388.278-.264.417-.623.417-1.077 0-.439-.136-.798-.41-1.076-.268-.284-.647-.43-1.135-.44h-2.065zm-102.225 59.304h-4.467L102.655 273h-1.45l4.072-10.664h1.231L110.587 273h-1.442l-1.019-2.783zm-4.043-1.157h3.626l-1.816-4.988-1.81 4.988zm7.662 2.834l.468-.579c.528-.683.828-1.709.901-3.076l.125-3.164h5.105v6.819h1.018v3.435h-1.355V273h-5.53v2.329h-1.355l.007-3.435h.616zm1.604 0h3.64v-5.566h-2.439l-.081 1.889c-.083 1.577-.456 2.803-1.12 3.677zM125.756 273c-.078-.156-.142-.435-.191-.835-.629.654-1.381.981-2.255.981-.782 0-1.424-.219-1.927-.659-.498-.444-.747-1.006-.747-1.684 0-.825.313-1.465.938-1.919.63-.459 1.513-.689 2.651-.689h1.318v-.622c0-.474-.141-.85-.424-1.128-.284-.283-.701-.425-1.253-.425-.483 0-.888.122-1.216.366-.327.244-.49.54-.49.886h-1.363c0-.395.14-.776.418-1.142a2.897 2.897 0 011.142-.879 3.872 3.872 0 011.59-.322c.913 0 1.628.229 2.146.688.517.454.786 1.082.805 1.883v3.647c0 .728.093 1.306.279 1.736V273h-1.421zm-2.249-1.033c.425 0 .828-.11 1.209-.329.381-.22.657-.506.827-.857v-1.626h-1.062c-1.66 0-2.49.486-2.49 1.457 0 .425.142.757.425.996.283.24.647.359 1.091.359zM135.504 273h-1.355v-6.804h-3.647V273h-1.362v-7.925h6.364V273zm8.064-6.826h-2.658V273h-1.355v-6.826h-2.608v-1.099h6.621v1.099zm6.094 6.826c-.078-.156-.141-.435-.19-.835-.63.654-1.382.981-2.256.981-.781 0-1.424-.219-1.926-.659a2.16 2.16 0 01-.748-1.684c0-.825.313-1.465.938-1.919.63-.459 1.514-.689 2.651-.689h1.319v-.622c0-.474-.142-.85-.425-1.128-.283-.283-.701-.425-1.253-.425-.483 0-.888.122-1.215.366-.328.244-.491.54-.491.886h-1.362c0-.395.139-.776.417-1.142a2.893 2.893 0 011.143-.879 3.864 3.864 0 011.589-.322c.913 0 1.628.229 2.146.688.518.454.786 1.082.806 1.883v3.647c0 .728.092 1.306.278 1.736V273h-1.421zm-2.248-1.033c.424 0 .827-.11 1.208-.329.381-.22.657-.506.828-.857v-1.626h-1.062c-1.66 0-2.491.486-2.491 1.457 0 .425.142.757.425.996.283.24.647.359 1.092.359zm5.632-6.892h1.362v6.819h3.648v-6.819h1.355v6.819h.944l-.131 3.457h-1.216V273h-5.962v-7.925zm13.901 0h1.355V273h-1.355v-5.779L163.292 273h-1.354v-7.925h1.354v5.786l3.655-5.786zm9.588 0V273h-1.363v-3.083h-2.043L171.261 273h-1.465l1.993-3.289c-.508-.185-.899-.471-1.172-.857-.269-.39-.403-.844-.403-1.362 0-.722.271-1.304.813-1.743.542-.444 1.267-.669 2.175-.674h3.333zm-4.959 2.432c0 .386.132.698.396.937.263.235.612.354 1.047.359h2.153v-2.629h-1.948c-.503 0-.903.124-1.201.373a1.182 1.182 0 00-.447.96zm-63.457 58.784h-4.475V331h-1.406v-10.664h6.606v1.157h-5.2v3.648h4.475v1.15zm7.053 1.926h-4.467L109.701 331h-1.45l4.072-10.664h1.231L117.633 331h-1.443l-1.018-2.783zm-4.043-1.157h3.626l-1.817-4.988-1.809 4.988zm15.996-1.048c0 1.03-.163 1.919-.49 2.666-.327.742-.786 1.323-1.377 1.743l1.904 1.495-.959.886-2.249-1.787a4.568 4.568 0 01-1.113.131c-.84 0-1.585-.205-2.234-.615-.649-.415-1.155-1.003-1.516-1.765-.357-.766-.54-1.653-.549-2.659v-.769c0-1.025.178-1.931.534-2.717.357-.786.86-1.387 1.509-1.802.654-.42 1.401-.63 2.241-.63.86 0 1.614.208 2.263.623.655.415 1.158 1.013 1.509 1.794.352.777.527 1.685.527 2.725v.681zm-1.406-.688c0-1.255-.251-2.222-.754-2.901-.498-.683-1.211-1.025-2.139-1.025-.884 0-1.582.339-2.095 1.018-.507.674-.769 1.611-.783 2.813v.783c0 1.221.254 2.183.761 2.886.513.703 1.224 1.055 2.132 1.055.908 0 1.611-.33 2.109-.989.498-.664.755-1.614.769-2.849v-.791zM110.382 389h-1.413v-9.507h-5.259V389h-1.406v-10.664h8.078V389zm1.993-4.036c0-.776.151-1.474.454-2.094.307-.62.732-1.099 1.274-1.436.547-.337 1.169-.505 1.868-.505 1.079 0 1.95.373 2.614 1.12.669.747 1.004 1.741 1.004 2.981v.095c0 .772-.149 1.465-.447 2.081a3.338 3.338 0 01-1.267 1.428c-.547.342-1.177.512-1.89.512-1.074 0-1.945-.373-2.614-1.12-.664-.747-.996-1.736-.996-2.966v-.096zm1.362.161c0 .879.202 1.585.608 2.117.41.532.957.799 1.64.799.689 0 1.236-.269 1.641-.806.405-.542.608-1.299.608-2.271 0-.869-.208-1.572-.623-2.109-.41-.542-.957-.813-1.64-.813-.669 0-1.209.266-1.619.798-.41.533-.615 1.294-.615 2.285zm6.958 2.769l.469-.579c.527-.683.827-1.709.9-3.076l.125-3.164h5.105v6.819h1.018v3.435h-1.355V389h-5.53v2.329h-1.355l.008-3.435h.615zm1.604 0h3.64v-5.566H123.5l-.081 1.889c-.083 1.577-.456 2.803-1.12 3.677zm7.595 0l.469-.579c.527-.683.827-1.709.901-3.076l.124-3.164h5.105v6.819h1.018v3.435h-1.355V389h-5.53v2.329h-1.355l.008-3.435h.615zm1.604 0h3.64v-5.566h-2.439l-.08 1.889c-.083 1.577-.457 2.803-1.121 3.677zm10.803 1.252c-1.074 0-1.948-.351-2.622-1.054-.674-.708-1.011-1.653-1.011-2.835v-.249c0-.786.149-1.487.447-2.102a3.523 3.523 0 011.26-1.45 3.166 3.166 0 011.758-.527c1.03 0 1.831.339 2.402 1.018.571.678.857 1.65.857 2.915v.564h-5.369c.02.781.247 1.413.682 1.897.439.478.996.718 1.67.718.478 0 .883-.098 1.215-.293.332-.196.623-.455.872-.777l.828.645c-.665 1.02-1.661 1.53-2.989 1.53zm-.168-7.104a1.8 1.8 0 00-1.377.601c-.371.395-.601.952-.689 1.669h3.97v-.102c-.039-.689-.225-1.221-.557-1.597-.332-.381-.781-.571-1.347-.571zm11.528 3.083c0 1.207-.276 2.178-.828 2.916-.551.737-1.298 1.105-2.241 1.105-.962 0-1.718-.305-2.27-.915v3.816h-1.355v-10.972h1.238l.066.879c.551-.683 1.318-1.025 2.299-1.025.952 0 1.704.359 2.256 1.076.557.718.835 1.717.835 2.996v.124zm-1.355-.153c0-.894-.19-1.599-.571-2.117-.381-.518-.903-.776-1.568-.776-.82 0-1.435.363-1.845 1.091v3.787c.405.722 1.025 1.084 1.86 1.084.65 0 1.165-.257 1.546-.77.385-.517.578-1.284.578-2.299zm9.287.586h-.952V389h-1.355v-3.442h-.952L156.115 389h-1.714l2.834-4.102-2.563-3.823h1.64l2.044 3.281h.93v-3.281h1.355v3.281h.923l2.058-3.281h1.641l-2.571 3.831 2.834 4.094h-1.714l-2.219-3.442zm7.632.066h-.989V389h-1.362v-7.925h1.362v3.355h.887l2.666-3.355h1.64l-3.135 3.809 3.399 4.116h-1.721l-2.747-3.376zM179.75 389c-.078-.156-.142-.435-.19-.835-.63.654-1.382.981-2.256.981-.782 0-1.424-.219-1.927-.659-.498-.444-.747-1.006-.747-1.684 0-.825.313-1.465.938-1.919.63-.459 1.514-.689 2.651-.689h1.319v-.622c0-.474-.142-.85-.425-1.128-.283-.283-.701-.425-1.253-.425-.483 0-.888.122-1.215.366-.328.244-.491.54-.491.886h-1.362c0-.395.139-.776.417-1.142a2.893 2.893 0 011.143-.879 3.864 3.864 0 011.589-.322c.913 0 1.628.229 2.146.688.517.454.786 1.082.806 1.883v3.647c0 .728.092 1.306.278 1.736V389h-1.421zm-2.249-1.033c.425 0 .828-.11 1.209-.329.381-.22.657-.506.828-.857v-1.626h-1.062c-1.661 0-2.491.486-2.491 1.457 0 .425.142.757.425.996.283.24.647.359 1.091.359z" fill="#fff"/><circle cx="86" cy="151" r="5" fill="#1ABC0F"/><circle cx="86" cy="209" r="5" fill="#1ABC0F"/><circle cx="86" cy="267" r="5" fill="#1ABC0F"/><circle cx="86" cy="325" r="5" fill="#1ABC0F"/><circle cx="86" cy="383" r="5" fill="#1ABC0F"/><path d="M273 63l20 20m-20 0l20-20" stroke="#fff" stroke-width="2" stroke-linecap="round" stroke-linejoin="round"/><defs><filter id="filter0_b" x="-10" y="-10" width="340" height="788" filterUnits="userSpaceOnUse" color-interpolation-filters="sRGB"><feFlood flood-opacity="0" result="BackgroundImageFix"/><feGaussianBlur in="BackgroundImage" stdDeviation="5"/><feComposite in2="SourceAlpha" operator="in" result="effect1_backgroundBlur"/><feBlend in="SourceGraphic" in2="effect1_backgroundBlur" result="shape"/></filter></defs></svg>