<svg width="139" height="139" fill="none" xmlns="http://www.w3.org/2000/svg"><path d="M84.856 82.174c-2.163 0-3.924-1.5-3.924-3.344 0-1.845 1.76-3.345 3.924-3.345 2.164 0 3.924 1.5 3.924 3.345 0 .97.799 1.756 1.784 1.756.984 0 1.783-.787 1.783-1.756 0-3.22-2.435-5.925-5.707-6.66v-.914c0-.97-.799-1.756-1.784-1.756s-1.783.787-1.783 1.756v.914c-3.272.734-5.708 3.44-5.708 6.66 0 3.78 3.36 6.857 7.491 6.857 2.164 0 3.924 1.5 3.924 3.345 0 1.844-1.76 3.344-3.924 3.344-2.163 0-3.924-1.5-3.924-3.344 0-.97-.798-1.757-1.783-1.757-.985 0-1.784.787-1.784 1.757 0 3.218 2.436 5.925 5.708 6.66v.758c0 .97.798 1.757 1.783 1.757.985 0 1.784-.787 1.784-1.757v-.759c3.272-.734 5.707-3.44 5.707-6.66 0-3.78-3.36-6.857-7.49-6.857zm18.808-10.251a23.167 23.167 0 00-9.506-8.292 1.797 1.797 0 00-2.383.824 1.75 1.75 0 00.836 2.35c6.77 3.208 11.146 10.063 11.146 17.464a19.18 19.18 0 01-2.29 9.083 1.747 1.747 0 00.738 2.382c.267.14.554.206.837.206a1.79 1.79 0 001.578-.934 22.672 22.672 0 002.709-10.737 22.57 22.57 0 00-3.665-12.346zM87.156 61.19h-.098c-.802 0-1.453.677-1.453 1.511 0 .834.65 1.51 1.453 1.51h.091c.8 0 1.449-.67 1.453-1.503.003-.834-.644-1.514-1.446-1.518zm-10.803 40.468c-6.771-3.209-11.146-10.064-11.146-17.465 0-3.167.792-6.308 2.29-9.083a1.748 1.748 0 00-.738-2.382 1.8 1.8 0 00-2.416.728 22.674 22.674 0 00-2.709 10.737 22.58 22.58 0 003.665 12.346 23.168 23.168 0 009.506 8.292c.25.119.513.174.773.174.665 0 1.303-.367 1.61-.998a1.75 1.75 0 00-.835-2.349zm4.803 1.837h-.084c-.806-.002-1.456.669-1.46 1.503-.003.835.644 1.514 1.447 1.518h.097c.802 0 1.453-.676 1.453-1.51 0-.835-.65-1.511-1.453-1.511z" fill="#1ABC0F"/><path d="M92.379 55.26a8.117 8.117 0 00-.774-1.44h4.533c4.416 0 8.008-3.635 8.008-8.103s-3.592-8.104-8.008-8.104H82.195a8.123 8.123 0 001.407-4.58c0-4.468-3.593-8.104-8.009-8.104H32.938c-4.416 0-8.009 3.636-8.009 8.104 0 4.468 3.593 8.104 8.009 8.104H46.88a8.123 8.123 0 00-1.407 4.58c0 1.699.52 3.277 1.407 4.58h-4.54c-4.416 0-8.01 3.636-8.01 8.104a8.126 8.126 0 003.033 6.342 8.126 8.126 0 00-3.032 6.342 8.126 8.126 0 003.032 6.343 8.126 8.126 0 00-3.032 6.341 8.126 8.126 0 003.032 6.343 8.126 8.126 0 00-3.032 6.342c0 4.468 3.593 8.103 8.009 8.103h20.518c5.405 5.85 13.094 9.514 21.615 9.514 16.32 0 29.598-13.435 29.598-29.949 0-13.744-9.198-25.354-21.692-28.862zm3.759-14.123c2.496 0 4.526 2.055 4.526 4.58 0 2.526-2.03 4.58-4.526 4.58H53.482c-2.496 0-4.526-2.054-4.526-4.58 0-2.525 2.03-4.58 4.526-4.58h42.656zm-63.2-3.524c-2.496 0-4.527-2.054-4.527-4.58 0-2.526 2.03-4.58 4.527-4.58h42.655c2.496 0 4.527 2.055 4.527 4.58 0 2.526-2.03 4.58-4.527 4.58H32.938zm9.402 16.208h42.655a4.48 4.48 0 011.975.46 29.47 29.47 0 00-2.497-.108c-8.173 0-15.583 3.37-20.945 8.809H42.34c-2.496 0-4.527-2.055-4.527-4.58 0-2.526 2.03-4.581 4.527-4.581zm0 12.684h18.213a30.004 30.004 0 00-4.474 9.16h-13.74c-2.495 0-4.526-2.054-4.526-4.58 0-2.525 2.03-4.58 4.527-4.58zm0 12.684h12.939a30.37 30.37 0 00-.107 9.16H42.34c-2.497 0-4.527-2.054-4.527-4.58 0-2.525 2.03-4.58 4.527-4.58zm0 21.845c-2.497 0-4.527-2.055-4.527-4.58 0-2.526 2.03-4.58 4.527-4.58h13.542a29.998 29.998 0 004.178 9.16H42.34zm42.133 9.513c-14.4 0-26.116-11.854-26.116-26.425 0-14.57 11.716-26.425 26.116-26.425s26.115 11.854 26.115 26.425c0 14.57-11.715 26.425-26.115 26.425z" fill="#1ABC0F"/></svg>