<svg width="30" height="30" viewBox="0 0 30 30" fill="none" xmlns="http://www.w3.org/2000/svg">
<path d="M15.0738 17.8402C13.5083 17.8402 12.234 16.5656 12.234 15.0001C12.234 13.4347 13.5083 12.1611 15.0738 12.1611C16.6397 12.1611 17.9131 13.4347 17.9131 15.0001C17.9131 16.5656 16.6397 17.8402 15.0738 17.8402ZM15.0738 10.5673C12.6294 10.5673 10.6407 12.5559 10.6407 15.0001C10.6407 17.4444 12.6294 19.433 15.0738 19.433C17.5182 19.433 19.5065 17.4444 19.5065 15.0001C19.5065 12.5559 17.5182 10.5673 15.0738 10.5673Z" fill="white"/>
<path d="M11.4068 7.69354C9.35908 7.69354 7.69345 9.35872 7.69345 11.4071V18.5929C7.69345 20.6413 9.35908 22.3065 11.4068 22.3065H18.5928C20.6406 22.3065 22.3066 20.6413 22.3066 18.5929V11.4071C22.3066 9.35872 20.6406 7.69354 18.5928 7.69354H11.4068ZM18.5928 24H11.4068C8.42557 24 6 21.5747 6 18.5929V11.4071C6 8.42534 8.42557 6 11.4068 6H18.5928C21.574 6 24 8.42534 24 11.4071V18.5929C24 21.5747 21.574 24 18.5928 24Z" fill="white"/>
<path fill-rule="evenodd" clip-rule="evenodd" d="M11.4068 7.69354C9.35908 7.69354 7.69345 9.35872 7.69345 11.4071V18.5929C7.69345 20.6413 9.35908 22.3065 11.4068 22.3065H18.5928C20.6406 22.3065 22.3066 20.6413 22.3066 18.5929V11.4071C22.3066 9.35872 20.6406 7.69354 18.5928 7.69354H11.4068ZM18.71 10.2693C18.71 9.68655 19.1825 9.21408 19.7653 9.21408C20.3482 9.21408 20.8202 9.68655 20.8202 10.2693C20.8202 10.852 20.3482 11.3255 19.7653 11.3255C19.1825 11.3255 18.71 10.852 18.71 10.2693ZM10.6407 15.0001C10.6407 12.5559 12.6294 10.5673 15.0738 10.5673C17.5182 10.5673 19.5065 12.5559 19.5065 15.0001C19.5065 17.4444 17.5182 19.433 15.0738 19.433C12.6294 19.433 10.6407 17.4444 10.6407 15.0001Z" fill="white"/>
</svg>
