<svg width="320" height="768" viewBox="0 0 320 768" fill="none" xmlns="http://www.w3.org/2000/svg">
<g filter="url(#filter0_b)">
<rect width="320" height="768" fill="#1A3236" fill-opacity="0.95"/>
</g>
<path d="M110.382 157H108.969V147.493H103.71V157H102.304V146.336H110.382V157ZM119.428 153.125C119.428 154.332 119.152 155.303 118.6 156.041C118.048 156.778 117.301 157.146 116.359 157.146C115.397 157.146 114.64 156.841 114.088 156.231V160.047H112.733V149.075H113.971L114.037 149.954C114.589 149.271 115.355 148.929 116.337 148.929C117.289 148.929 118.041 149.288 118.593 150.005C119.149 150.723 119.428 151.722 119.428 153.001V153.125ZM118.073 152.972C118.073 152.078 117.882 151.373 117.501 150.855C117.121 150.337 116.598 150.079 115.934 150.079C115.114 150.079 114.499 150.442 114.088 151.17V154.957C114.494 155.679 115.114 156.041 115.949 156.041C116.598 156.041 117.113 155.784 117.494 155.271C117.88 154.754 118.073 153.987 118.073 152.972ZM124.445 157.146C123.371 157.146 122.497 156.795 121.823 156.092C121.149 155.384 120.812 154.439 120.812 153.257V153.008C120.812 152.222 120.961 151.521 121.259 150.906C121.562 150.286 121.981 149.803 122.519 149.456C123.061 149.104 123.646 148.929 124.276 148.929C125.307 148.929 126.107 149.268 126.679 149.947C127.25 150.625 127.536 151.597 127.536 152.862V153.426H122.167C122.187 154.207 122.414 154.839 122.848 155.323C123.288 155.801 123.844 156.041 124.518 156.041C124.997 156.041 125.402 155.943 125.734 155.748C126.066 155.552 126.356 155.293 126.605 154.971L127.433 155.616C126.769 156.636 125.773 157.146 124.445 157.146ZM124.276 150.042C123.729 150.042 123.271 150.242 122.899 150.643C122.528 151.038 122.299 151.595 122.211 152.312H126.181V152.21C126.142 151.521 125.956 150.989 125.624 150.613C125.292 150.232 124.843 150.042 124.276 150.042ZM134.237 149.075H135.592V157H134.237V151.221L130.583 157H129.228V149.075H130.583V154.861L134.237 149.075ZM142.331 155.206L145.026 149.075H146.718V157H145.363V151.236L142.799 157H141.862L139.247 151.111V157H137.892V149.075H139.65L142.331 155.206ZM151.493 155.015L153.339 149.075H154.789L151.603 158.223C151.11 159.542 150.326 160.201 149.252 160.201L148.996 160.179L148.49 160.083V158.985L148.856 159.014C149.315 159.014 149.672 158.921 149.926 158.736C150.185 158.55 150.397 158.211 150.563 157.718L150.863 156.912L148.036 149.075H149.516L151.493 155.015ZM157.404 149.075V155.894H160.304V149.075H161.659V155.894H164.552V149.075H165.915V155.894H167.028L166.896 159.351H165.68V157H156.042V149.075H157.404ZM171.789 157.146C170.714 157.146 169.84 156.795 169.167 156.092C168.493 155.384 168.156 154.439 168.156 153.257V153.008C168.156 152.222 168.305 151.521 168.603 150.906C168.905 150.286 169.325 149.803 169.862 149.456C170.404 149.104 170.99 148.929 171.62 148.929C172.65 148.929 173.451 149.268 174.022 149.947C174.594 150.625 174.879 151.597 174.879 152.862V153.426H169.511C169.53 154.207 169.757 154.839 170.192 155.323C170.631 155.801 171.188 156.041 171.862 156.041C172.34 156.041 172.746 155.943 173.078 155.748C173.41 155.552 173.7 155.293 173.949 154.971L174.777 155.616C174.113 156.636 173.117 157.146 171.789 157.146ZM171.62 150.042C171.073 150.042 170.614 150.242 170.243 150.643C169.872 151.038 169.643 151.595 169.555 152.312H173.524V152.21C173.485 151.521 173.3 150.989 172.968 150.613C172.636 150.232 172.187 150.042 171.62 150.042ZM179.633 156.041C180.116 156.041 180.539 155.894 180.9 155.601C181.261 155.308 181.461 154.942 181.5 154.502H182.782C182.758 154.957 182.602 155.389 182.313 155.799C182.025 156.209 181.64 156.536 181.156 156.78C180.678 157.024 180.17 157.146 179.633 157.146C178.554 157.146 177.694 156.788 177.055 156.07C176.42 155.347 176.103 154.361 176.103 153.111V152.884C176.103 152.112 176.244 151.426 176.527 150.826C176.811 150.225 177.216 149.759 177.743 149.427C178.275 149.095 178.903 148.929 179.625 148.929C180.514 148.929 181.251 149.195 181.837 149.727C182.428 150.259 182.743 150.95 182.782 151.8H181.5C181.461 151.287 181.266 150.867 180.915 150.54C180.568 150.208 180.138 150.042 179.625 150.042C178.937 150.042 178.402 150.291 178.021 150.789C177.646 151.282 177.458 151.998 177.458 152.935V153.191C177.458 154.104 177.646 154.808 178.021 155.301C178.397 155.794 178.935 156.041 179.633 156.041ZM190.194 150.174H187.536V157H186.181V150.174H183.573V149.075H190.194V150.174ZM191.637 157V149.075H194.728C195.783 149.075 196.591 149.261 197.152 149.632C197.719 149.998 198.002 150.538 198.002 151.25C198.002 151.617 197.892 151.949 197.672 152.247C197.453 152.54 197.128 152.764 196.698 152.92C197.177 153.033 197.56 153.252 197.848 153.58C198.141 153.907 198.288 154.297 198.288 154.751C198.288 155.479 198.019 156.036 197.482 156.421C196.95 156.807 196.195 157 195.219 157H191.637ZM192.992 153.521V155.909H195.233C195.8 155.909 196.222 155.804 196.5 155.594C196.784 155.384 196.925 155.088 196.925 154.708C196.925 153.917 196.344 153.521 195.182 153.521H192.992ZM192.992 152.437H194.743C196.012 152.437 196.647 152.066 196.647 151.324C196.647 150.582 196.046 150.198 194.845 150.174H192.992V152.437ZM204.975 157C204.896 156.844 204.833 156.565 204.784 156.165C204.154 156.819 203.402 157.146 202.528 157.146C201.747 157.146 201.105 156.927 200.602 156.487C200.104 156.043 199.855 155.481 199.855 154.803C199.855 153.978 200.167 153.338 200.792 152.884C201.422 152.425 202.306 152.195 203.444 152.195H204.762V151.573C204.762 151.099 204.621 150.723 204.337 150.445C204.054 150.162 203.637 150.02 203.085 150.02C202.602 150.02 202.196 150.142 201.869 150.386C201.542 150.63 201.378 150.926 201.378 151.272H200.016C200.016 150.877 200.155 150.496 200.434 150.13C200.717 149.759 201.098 149.466 201.576 149.251C202.06 149.036 202.589 148.929 203.166 148.929C204.079 148.929 204.794 149.158 205.312 149.617C205.829 150.071 206.098 150.699 206.117 151.5V155.147C206.117 155.875 206.21 156.453 206.396 156.883V157H204.975ZM202.726 155.967C203.151 155.967 203.554 155.857 203.935 155.638C204.315 155.418 204.591 155.132 204.762 154.781V153.155H203.7C202.04 153.155 201.21 153.641 201.21 154.612C201.21 155.037 201.352 155.369 201.635 155.608C201.918 155.848 202.282 155.967 202.726 155.967Z" fill="white"/>
<path d="M110.382 215H108.969V205.493H103.71V215H102.304V204.336H110.382V215ZM119.428 211.125C119.428 212.332 119.152 213.303 118.6 214.041C118.048 214.778 117.301 215.146 116.359 215.146C115.397 215.146 114.64 214.841 114.088 214.231V218.047H112.733V207.075H113.971L114.037 207.954C114.589 207.271 115.355 206.929 116.337 206.929C117.289 206.929 118.041 207.288 118.593 208.005C119.149 208.723 119.428 209.722 119.428 211.001V211.125ZM118.073 210.972C118.073 210.078 117.882 209.373 117.501 208.855C117.121 208.337 116.598 208.079 115.934 208.079C115.114 208.079 114.499 208.442 114.088 209.17V212.957C114.494 213.679 115.114 214.041 115.949 214.041C116.598 214.041 117.113 213.784 117.494 213.271C117.88 212.754 118.073 211.987 118.073 210.972ZM126.283 207.075H127.638V215H126.283V209.221L122.628 215H121.273V207.075H122.628V212.861L126.283 207.075ZM136.288 215H134.933V211.616H131.293V215H129.931V207.075H131.293V210.51H134.933V207.075H136.288V215ZM138.588 207.075H139.95V213.894H143.598V207.075H144.953V213.894H145.897L145.766 217.351H144.55V215H138.588V207.075ZM152.489 207.075H153.844V215H152.489V209.221L148.834 215H147.479V207.075H148.834V212.861L152.489 207.075ZM162.501 215H161.146V208.196H157.499V215H156.137V207.075H162.501V215ZM175.092 211.125C175.092 212.332 174.816 213.303 174.264 214.041C173.712 214.778 172.965 215.146 172.023 215.146C171.061 215.146 170.304 214.841 169.752 214.231V218.047H168.397V207.075H169.635L169.701 207.954C170.253 207.271 171.02 206.929 172.001 206.929C172.953 206.929 173.705 207.288 174.257 208.005C174.813 208.723 175.092 209.722 175.092 211.001V211.125ZM173.737 210.972C173.737 210.078 173.546 209.373 173.166 208.855C172.785 208.337 172.262 208.079 171.598 208.079C170.778 208.079 170.163 208.442 169.752 209.17V212.957C170.158 213.679 170.778 214.041 171.613 214.041C172.262 214.041 172.777 213.784 173.158 213.271C173.544 212.754 173.737 211.987 173.737 210.972ZM181.713 215C181.635 214.844 181.571 214.565 181.522 214.165C180.893 214.819 180.141 215.146 179.267 215.146C178.485 215.146 177.843 214.927 177.34 214.487C176.842 214.043 176.593 213.481 176.593 212.803C176.593 211.978 176.906 211.338 177.531 210.884C178.161 210.425 179.044 210.195 180.182 210.195H181.5V209.573C181.5 209.099 181.359 208.723 181.076 208.445C180.792 208.162 180.375 208.02 179.823 208.02C179.34 208.02 178.935 208.142 178.607 208.386C178.28 208.63 178.117 208.926 178.117 209.272H176.754C176.754 208.877 176.894 208.496 177.172 208.13C177.455 207.759 177.836 207.466 178.314 207.251C178.798 207.036 179.328 206.929 179.904 206.929C180.817 206.929 181.532 207.158 182.05 207.617C182.567 208.071 182.836 208.699 182.855 209.5V213.147C182.855 213.875 182.948 214.453 183.134 214.883V215H181.713ZM179.464 213.967C179.889 213.967 180.292 213.857 180.673 213.638C181.054 213.418 181.33 213.132 181.5 212.781V211.155H180.438C178.778 211.155 177.948 211.641 177.948 212.612C177.948 213.037 178.09 213.369 178.373 213.608C178.656 213.848 179.02 213.967 179.464 213.967ZM188.458 207.529C189.455 207.529 190.25 207.864 190.846 208.533C191.447 209.197 191.747 210.073 191.747 211.162V211.287C191.747 212.034 191.603 212.703 191.315 213.293C191.027 213.879 190.612 214.336 190.07 214.663C189.533 214.985 188.913 215.146 188.209 215.146C187.145 215.146 186.288 214.792 185.639 214.084C184.989 213.372 184.665 212.417 184.665 211.221V210.562C184.665 208.896 184.972 207.573 185.587 206.592C186.208 205.61 187.121 205.012 188.327 204.797C189.01 204.675 189.472 204.526 189.711 204.351C189.95 204.175 190.07 203.933 190.07 203.625H191.183C191.183 204.236 191.044 204.712 190.766 205.054C190.492 205.396 190.053 205.637 189.447 205.779L188.437 206.006C187.631 206.196 187.025 206.519 186.62 206.973C186.22 207.422 185.958 208.022 185.836 208.774C186.554 207.944 187.428 207.529 188.458 207.529ZM188.195 208.643C187.531 208.643 187.003 208.867 186.613 209.316C186.222 209.761 186.027 210.378 186.027 211.169V211.287C186.027 212.136 186.222 212.81 186.613 213.308C187.008 213.801 187.541 214.048 188.209 214.048C188.883 214.048 189.416 213.799 189.806 213.301C190.197 212.803 190.392 212.075 190.392 211.118C190.392 210.371 190.194 209.773 189.799 209.324C189.408 208.87 188.874 208.643 188.195 208.643ZM192.912 210.964C192.912 210.188 193.063 209.49 193.366 208.87C193.673 208.25 194.098 207.771 194.64 207.434C195.187 207.097 195.81 206.929 196.508 206.929C197.587 206.929 198.458 207.302 199.123 208.049C199.792 208.796 200.126 209.79 200.126 211.03V211.125C200.126 211.897 199.977 212.59 199.679 213.206C199.386 213.816 198.964 214.292 198.412 214.634C197.865 214.976 197.235 215.146 196.522 215.146C195.448 215.146 194.577 214.773 193.908 214.026C193.244 213.279 192.912 212.29 192.912 211.06V210.964ZM194.274 211.125C194.274 212.004 194.477 212.71 194.882 213.242C195.292 213.774 195.839 214.041 196.522 214.041C197.211 214.041 197.758 213.772 198.163 213.235C198.568 212.693 198.771 211.936 198.771 210.964C198.771 210.095 198.563 209.392 198.148 208.855C197.738 208.313 197.191 208.042 196.508 208.042C195.839 208.042 195.299 208.308 194.889 208.84C194.479 209.373 194.274 210.134 194.274 211.125ZM207.553 208.174H204.894V215H203.539V208.174H200.932V207.075H207.553V208.174ZM210.351 209.807H212.409C213.307 209.817 214.018 210.051 214.54 210.51C215.062 210.969 215.324 211.592 215.324 212.378C215.324 213.169 215.055 213.804 214.518 214.282C213.981 214.761 213.258 215 212.35 215H208.996V207.075H210.351V209.807ZM218.151 215H216.789V207.075H218.151V215ZM210.351 210.913V213.894H212.365C212.873 213.894 213.266 213.765 213.544 213.506C213.822 213.242 213.961 212.883 213.961 212.429C213.961 211.99 213.825 211.631 213.551 211.353C213.283 211.069 212.904 210.923 212.416 210.913H210.351Z" fill="white"/>
<path d="M108.126 270.217H103.659L102.655 273H101.205L105.277 262.336H106.508L110.587 273H109.145L108.126 270.217ZM104.083 269.06H107.709L105.893 264.072L104.083 269.06ZM111.745 271.894L112.213 271.315C112.741 270.632 113.041 269.606 113.114 268.239L113.239 265.075H118.344V271.894H119.362V275.329H118.007V273H112.477V275.329H111.122L111.129 271.894H111.745ZM113.349 271.894H116.989V266.328H114.55L114.469 268.217C114.386 269.794 114.013 271.02 113.349 271.894ZM125.756 273C125.678 272.844 125.614 272.565 125.565 272.165C124.936 272.819 124.184 273.146 123.31 273.146C122.528 273.146 121.886 272.927 121.383 272.487C120.885 272.043 120.636 271.481 120.636 270.803C120.636 269.978 120.949 269.338 121.574 268.884C122.204 268.425 123.087 268.195 124.225 268.195H125.543V267.573C125.543 267.099 125.402 266.723 125.119 266.445C124.835 266.162 124.418 266.02 123.866 266.02C123.383 266.02 122.978 266.142 122.65 266.386C122.323 266.63 122.16 266.926 122.16 267.272H120.797C120.797 266.877 120.937 266.496 121.215 266.13C121.498 265.759 121.879 265.466 122.357 265.251C122.841 265.036 123.371 264.929 123.947 264.929C124.86 264.929 125.575 265.158 126.093 265.617C126.61 266.071 126.879 266.699 126.898 267.5V271.147C126.898 271.875 126.991 272.453 127.177 272.883V273H125.756ZM123.507 271.967C123.932 271.967 124.335 271.857 124.716 271.638C125.097 271.418 125.373 271.132 125.543 270.781V269.155H124.481C122.821 269.155 121.991 269.641 121.991 270.612C121.991 271.037 122.133 271.369 122.416 271.608C122.699 271.848 123.063 271.967 123.507 271.967ZM135.504 273H134.149V266.196H130.502V273H129.14V265.075H135.504V273ZM143.568 266.174H140.91V273H139.555V266.174H136.947V265.075H143.568V266.174ZM149.662 273C149.584 272.844 149.521 272.565 149.472 272.165C148.842 272.819 148.09 273.146 147.216 273.146C146.435 273.146 145.792 272.927 145.29 272.487C144.792 272.043 144.542 271.481 144.542 270.803C144.542 269.978 144.855 269.338 145.48 268.884C146.11 268.425 146.994 268.195 148.131 268.195H149.45V267.573C149.45 267.099 149.308 266.723 149.025 266.445C148.742 266.162 148.324 266.02 147.772 266.02C147.289 266.02 146.884 266.142 146.557 266.386C146.229 266.63 146.066 266.926 146.066 267.272H144.704C144.704 266.877 144.843 266.496 145.121 266.13C145.404 265.759 145.785 265.466 146.264 265.251C146.747 265.036 147.277 264.929 147.853 264.929C148.766 264.929 149.481 265.158 149.999 265.617C150.517 266.071 150.785 266.699 150.805 267.5V271.147C150.805 271.875 150.897 272.453 151.083 272.883V273H149.662ZM147.414 271.967C147.838 271.967 148.241 271.857 148.622 271.638C149.003 271.418 149.279 271.132 149.45 270.781V269.155H148.388C146.728 269.155 145.897 269.641 145.897 270.612C145.897 271.037 146.039 271.369 146.322 271.608C146.605 271.848 146.969 271.967 147.414 271.967ZM153.046 265.075H154.408V271.894H158.056V265.075H159.411V271.894H160.355L160.224 275.351H159.008V273H153.046V265.075ZM166.947 265.075H168.302V273H166.947V267.221L163.292 273H161.938V265.075H163.292V270.861L166.947 265.075ZM176.535 265.075V273H175.172V269.917H173.129L171.261 273H169.796L171.789 269.711C171.281 269.526 170.89 269.24 170.617 268.854C170.348 268.464 170.214 268.01 170.214 267.492C170.214 266.77 170.485 266.188 171.027 265.749C171.569 265.305 172.294 265.08 173.202 265.075H176.535ZM171.576 267.507C171.576 267.893 171.708 268.205 171.972 268.444C172.235 268.679 172.584 268.798 173.019 268.803H175.172V266.174H173.224C172.721 266.174 172.321 266.298 172.023 266.547C171.725 266.792 171.576 267.111 171.576 267.507Z" fill="white"/>
<path d="M108.119 326.291H103.644V331H102.238V320.336H108.844V321.493H103.644V325.141H108.119V326.291ZM115.172 328.217H110.705L109.701 331H108.251L112.323 320.336H113.554L117.633 331H116.19L115.172 328.217ZM111.129 327.06H114.755L112.938 322.072L111.129 327.06ZM127.125 326.012C127.125 327.042 126.962 327.931 126.635 328.678C126.308 329.42 125.849 330.001 125.258 330.421L127.162 331.916L126.203 332.802L123.954 331.015C123.603 331.103 123.231 331.146 122.841 331.146C122.001 331.146 121.256 330.941 120.607 330.531C119.958 330.116 119.452 329.528 119.091 328.766C118.734 328 118.551 327.113 118.542 326.107V325.338C118.542 324.313 118.72 323.407 119.076 322.621C119.433 321.835 119.936 321.234 120.585 320.819C121.239 320.399 121.986 320.189 122.826 320.189C123.686 320.189 124.44 320.397 125.089 320.812C125.744 321.227 126.247 321.825 126.598 322.606C126.95 323.383 127.125 324.291 127.125 325.331V326.012ZM125.719 325.324C125.719 324.069 125.468 323.102 124.965 322.423C124.467 321.74 123.754 321.398 122.826 321.398C121.942 321.398 121.244 321.737 120.731 322.416C120.224 323.09 119.962 324.027 119.948 325.229V326.012C119.948 327.233 120.202 328.195 120.709 328.898C121.222 329.601 121.933 329.953 122.841 329.953C123.749 329.953 124.452 329.623 124.95 328.964C125.448 328.3 125.705 327.35 125.719 326.115V325.324Z" fill="white"/>
<path d="M110.382 389H108.969V379.493H103.71V389H102.304V378.336H110.382V389ZM112.375 384.964C112.375 384.188 112.526 383.49 112.829 382.87C113.136 382.25 113.561 381.771 114.103 381.434C114.65 381.097 115.272 380.929 115.971 380.929C117.05 380.929 117.921 381.302 118.585 382.049C119.254 382.796 119.589 383.79 119.589 385.03V385.125C119.589 385.897 119.44 386.59 119.142 387.206C118.849 387.816 118.427 388.292 117.875 388.634C117.328 388.976 116.698 389.146 115.985 389.146C114.911 389.146 114.04 388.773 113.371 388.026C112.707 387.279 112.375 386.29 112.375 385.06V384.964ZM113.737 385.125C113.737 386.004 113.939 386.71 114.345 387.242C114.755 387.774 115.302 388.041 115.985 388.041C116.674 388.041 117.221 387.772 117.626 387.235C118.031 386.693 118.234 385.936 118.234 384.964C118.234 384.095 118.026 383.392 117.611 382.855C117.201 382.313 116.654 382.042 115.971 382.042C115.302 382.042 114.762 382.308 114.352 382.84C113.942 383.373 113.737 384.134 113.737 385.125ZM120.695 387.894L121.164 387.315C121.691 386.632 121.991 385.606 122.064 384.239L122.189 381.075H127.294V387.894H128.312V391.329H126.957V389H121.427V391.329H120.072L120.08 387.894H120.695ZM122.299 387.894H125.939V382.328H123.5L123.419 384.217C123.336 385.794 122.963 387.02 122.299 387.894ZM129.894 387.894L130.363 387.315C130.89 386.632 131.19 385.606 131.264 384.239L131.388 381.075H136.493V387.894H137.511V391.329H136.156V389H130.626V391.329H129.271L129.279 387.894H129.894ZM131.498 387.894H135.138V382.328H132.699L132.619 384.217C132.536 385.794 132.162 387.02 131.498 387.894ZM142.301 389.146C141.227 389.146 140.353 388.795 139.679 388.092C139.005 387.384 138.668 386.439 138.668 385.257V385.008C138.668 384.222 138.817 383.521 139.115 382.906C139.418 382.286 139.838 381.803 140.375 381.456C140.917 381.104 141.503 380.929 142.133 380.929C143.163 380.929 143.964 381.268 144.535 381.947C145.106 382.625 145.392 383.597 145.392 384.862V385.426H140.023C140.043 386.207 140.27 386.839 140.705 387.323C141.144 387.801 141.701 388.041 142.375 388.041C142.853 388.041 143.258 387.943 143.59 387.748C143.922 387.552 144.213 387.293 144.462 386.971L145.29 387.616C144.625 388.636 143.629 389.146 142.301 389.146ZM142.133 382.042C141.586 382.042 141.127 382.242 140.756 382.643C140.385 383.038 140.155 383.595 140.067 384.312H144.037V384.21C143.998 383.521 143.812 382.989 143.48 382.613C143.148 382.232 142.699 382.042 142.133 382.042ZM153.661 385.125C153.661 386.332 153.385 387.303 152.833 388.041C152.282 388.778 151.535 389.146 150.592 389.146C149.63 389.146 148.874 388.841 148.322 388.231V392.047H146.967V381.075H148.205L148.271 381.954C148.822 381.271 149.589 380.929 150.57 380.929C151.522 380.929 152.274 381.288 152.826 382.005C153.383 382.723 153.661 383.722 153.661 385.001V385.125ZM152.306 384.972C152.306 384.078 152.116 383.373 151.735 382.855C151.354 382.337 150.832 382.079 150.167 382.079C149.347 382.079 148.732 382.442 148.322 383.17V386.957C148.727 387.679 149.347 388.041 150.182 388.041C150.832 388.041 151.347 387.784 151.728 387.271C152.113 386.754 152.306 385.987 152.306 384.972ZM161.593 385.558H160.641V389H159.286V385.558H158.334L156.115 389H154.401L157.235 384.898L154.672 381.075H156.312L158.356 384.356H159.286V381.075H160.641V384.356H161.564L163.622 381.075H165.263L162.692 384.906L165.526 389H163.812L161.593 385.558ZM169.225 385.624H168.236V389H166.874V381.075H168.236V384.43H169.123L171.789 381.075H173.429L170.294 384.884L173.693 389H171.972L169.225 385.624ZM179.75 389C179.672 388.844 179.608 388.565 179.56 388.165C178.93 388.819 178.178 389.146 177.304 389.146C176.522 389.146 175.88 388.927 175.377 388.487C174.879 388.043 174.63 387.481 174.63 386.803C174.63 385.978 174.943 385.338 175.568 384.884C176.198 384.425 177.082 384.195 178.219 384.195H179.538V383.573C179.538 383.099 179.396 382.723 179.113 382.445C178.83 382.162 178.412 382.02 177.86 382.02C177.377 382.02 176.972 382.142 176.645 382.386C176.317 382.63 176.154 382.926 176.154 383.272H174.792C174.792 382.877 174.931 382.496 175.209 382.13C175.492 381.759 175.873 381.466 176.352 381.251C176.835 381.036 177.365 380.929 177.941 380.929C178.854 380.929 179.569 381.158 180.087 381.617C180.604 382.071 180.873 382.699 180.893 383.5V387.147C180.893 387.875 180.985 388.453 181.171 388.883V389H179.75ZM177.501 387.967C177.926 387.967 178.329 387.857 178.71 387.638C179.091 387.418 179.367 387.132 179.538 386.781V385.155H178.476C176.815 385.155 175.985 385.641 175.985 386.612C175.985 387.037 176.127 387.369 176.41 387.608C176.693 387.848 177.057 387.967 177.501 387.967Z" fill="white"/>
<circle cx="86" cy="151" r="5" fill="#1ABC0F"/>
<circle cx="86" cy="209" r="5" fill="#1ABC0F"/>
<circle cx="86" cy="267" r="5" fill="#1ABC0F"/>
<circle cx="86" cy="325" r="5" fill="#1ABC0F"/>
<circle cx="86" cy="383" r="5" fill="#1ABC0F"/>
<path d="M273 63L293 83M273 83L293 63" stroke="white" stroke-width="2" stroke-linecap="round" stroke-linejoin="round"/>
<defs>
<filter id="filter0_b" x="-10" y="-10" width="340" height="788" filterUnits="userSpaceOnUse" color-interpolation-filters="sRGB">
<feFlood flood-opacity="0" result="BackgroundImageFix"/>
<feGaussianBlur in="BackgroundImage" stdDeviation="5"/>
<feComposite in2="SourceAlpha" operator="in" result="effect1_backgroundBlur"/>
<feBlend mode="normal" in="SourceGraphic" in2="effect1_backgroundBlur" result="shape"/>
</filter>
</defs>
</svg>
