<svg width="140" height="140" fill="none" xmlns="http://www.w3.org/2000/svg"><path d="M111.408 67.712L72.989 29.293A14.378 14.378 0 0062.89 25.11H33.271c-4.5 0-8.162 3.66-8.162 8.162v29.617c0 3.814 1.486 7.401 4.184 10.101l38.42 38.419a11.825 11.825 0 008.409 3.483c3.172 0 6.161-1.237 8.409-3.483l26.877-26.877a11.8 11.8 0 003.483-8.41 11.8 11.8 0 00-3.483-8.409zm-2.885 13.933l-26.877 26.878c-2.957 2.949-8.09 2.949-11.048 0l-38.42-38.42a10.137 10.137 0 01-2.988-7.215V33.271c0-2.25 1.83-4.081 4.08-4.081h29.62a10.27 10.27 0 017.214 2.989l38.419 38.419a7.758 7.758 0 012.288 5.524 7.758 7.758 0 01-2.288 5.523z" fill="#1ABC0F"/><path d="M73.177 76.062a2.035 2.035 0 002.886 0 2.04 2.04 0 000-2.885l-2.887-2.887 2.886-2.886 4.328 4.33a2.04 2.04 0 102.886-2.886l-5.771-5.773a2.039 2.039 0 00-2.886 0L63.078 74.62a2.04 2.04 0 000 2.886l5.77 5.77c.399.399.921.598 1.443.598s1.044-.199 1.443-.598a2.04 2.04 0 000-2.885l-4.328-4.328 2.885-2.886 2.886 2.886zm15.869-1.442a2.04 2.04 0 00-2.885 0L74.619 86.16a2.04 2.04 0 000 2.886l5.771 5.773a2.038 2.038 0 002.886 0 2.04 2.04 0 000-2.886l-4.328-4.33 2.885-2.885 2.885 2.885a2.041 2.041 0 002.886.001 2.04 2.04 0 000-2.886l-2.885-2.885 2.885-2.886 4.328 4.328a2.04 2.04 0 102.885-2.885l-5.77-5.77zM52.975 52.976a2.04 2.04 0 000-2.885l-2.886-2.887 2.886-2.886 4.328 4.328a2.04 2.04 0 102.885-2.885l-5.77-5.77c-.766-.766-2.12-.766-2.886 0l-5.768 5.768-.003.002v.002l-5.77 5.77a2.04 2.04 0 102.885 2.886l4.328-4.33 2.885 2.887a2.038 2.038 0 002.886 0zm11.88 11.883a6.07 6.07 0 003.993-1.784 6.127 6.127 0 000-8.656l-2.885-2.885a2.04 2.04 0 00-2.885 0l-5.72 5.717c-.02.018-.04.036-.055.053a.46.46 0 00-.052.056l-5.719 5.715a2.04 2.04 0 102.885 2.886l4.328-4.328 1.447 1.44a2.05 2.05 0 010 2.888l-2.89 2.887a2.04 2.04 0 102.886 2.886l2.89-2.888a6.101 6.101 0 001.777-3.987zm-.335-8.997l1.443 1.442a2.04 2.04 0 01-1.443 3.484h-.004a2.014 2.014 0 01-1.438-.6l-1.443-1.44 2.885-2.886z" fill="#1ABC0F"/></svg>