<svg width="140" height="140" fill="none" xmlns="http://www.w3.org/2000/svg"><path d="M111.612 53.112a44.665 44.665 0 00-9.855-14.869 44.661 44.661 0 00-14.869-9.854 45.164 45.164 0 00-16.919-3.28 44.96 44.96 0 00-16.89 3.287 44.705 44.705 0 00-14.836 9.847 44.703 44.703 0 00-9.848 14.837 44.963 44.963 0 00-3.286 16.889c0 5.75 1.091 11.504 3.28 16.92a44.66 44.66 0 009.854 14.868 44.666 44.666 0 0014.869 9.855 45.175 45.175 0 0016.92 3.279 44.961 44.961 0 0016.889-3.286 44.72 44.72 0 0014.836-9.848 44.706 44.706 0 009.848-14.837 44.96 44.96 0 003.287-16.889c0-5.75-1.092-11.504-3.28-16.919zm-5.556 31.559a38.728 38.728 0 01-8.533 12.852 38.716 38.716 0 01-12.852 8.533 38.977 38.977 0 01-14.64 2.848c-4.993 0-9.986-.948-14.675-2.844a38.655 38.655 0 01-12.878-8.537 38.66 38.66 0 01-8.538-12.878 39.177 39.177 0 01-2.843-14.676c0-4.981.951-9.96 2.848-14.64a38.709 38.709 0 018.533-12.851 38.714 38.714 0 0112.852-8.533 38.977 38.977 0 0114.64-2.848c4.993 0 9.986.948 14.675 2.843a38.665 38.665 0 0112.878 8.538 38.663 38.663 0 018.538 12.878 39.186 39.186 0 012.843 14.675c0 4.981-.951 9.961-2.848 14.64z" fill="#1ABC0F"/><path d="M88.644 51.356a2.93 2.93 0 00-4.143 0L51.356 84.501a2.93 2.93 0 104.143 4.143L88.644 55.5a2.93 2.93 0 000-4.143zM68.38 49.145a8.775 8.775 0 00-1.93-2.909 8.774 8.774 0 00-6.215-2.574 8.775 8.775 0 00-6.215 2.574 8.77 8.77 0 00-2.575 6.215 8.778 8.778 0 002.574 6.215 8.774 8.774 0 006.216 2.574 8.775 8.775 0 006.215-2.574 8.773 8.773 0 002.574-6.215 8.797 8.797 0 00-.644-3.306zm-5.43 4.41a2.91 2.91 0 01-.644.968 2.908 2.908 0 01-2.071.858 2.908 2.908 0 01-2.072-.858 2.905 2.905 0 01-.858-2.072 2.907 2.907 0 01.858-2.072 2.906 2.906 0 012.072-.857 2.908 2.908 0 012.072.858 2.907 2.907 0 01.857 2.071c0 .378-.072.754-.214 1.104zM89.864 82.32a8.776 8.776 0 00-1.93-2.91 8.77 8.77 0 00-6.216-2.574 8.773 8.773 0 00-6.215 2.574 8.772 8.772 0 00-2.574 6.215 8.775 8.775 0 002.574 6.215 8.776 8.776 0 006.215 2.574 8.775 8.775 0 006.215-2.574 8.773 8.773 0 002.574-6.215 8.796 8.796 0 00-.643-3.306zm-5.43 4.409a2.91 2.91 0 01-.644.967 2.907 2.907 0 01-2.071.858 2.908 2.908 0 01-2.072-.858 2.908 2.908 0 01-.858-2.071 2.908 2.908 0 01.858-2.072 2.905 2.905 0 012.072-.858 2.913 2.913 0 012.071.858 2.908 2.908 0 01.858 2.072c0 .377-.072.754-.214 1.103z" fill="#1ABC0F"/></svg>